<?xml version="1.0" encoding="utf-8"?><svg version="1.1" preserveAspectRatio="xMidYMid" xml:space="preserve" width="475.58830000000006pt" height="267.852pt" viewBox="94.1307 93.0103 475.58830000000006 267.852" xmlns="http://www.w3.org/2000/svg" xmlns:xlink="http://www.w3.org/1999/xlink"><desc xmlns:eadoc="http://www.siemens.com/eauml/doc"><eadoc:guid>EAID_F1B835C2_1632_4dd4_BB71_6CBB9BB156AA</eadoc:guid><eadoc:name>domain classes</eadoc:name><eadoc:type>Diagram</eadoc:type><eadoc:note></eadoc:note></desc><g transform="matrix(1 0 0 -1 0 816)"><g stroke="#000000" fill="none" fill-rule="evenodd" stroke-width="1" stroke-linecap="round" stroke-linejoin="round" stroke-miterlimit="3" letter-spacing="normal" font-weight="normal" font-style="normal" baseline-shift="0"><g transform="matrix(0.75 0 0 0.75 0 816.450012)"><g transform="matrix(0.958974 0 0 -0.959436 0 0)" font-family="Arial" font-size="10"><rect fill="#C0BFC0" stroke="none" x="145" y="144" width="132" height="183" /><rect fill="#FCF2E3" stroke="none" x="142" y="141" width="132" height="183" /><rect x="142" y="141" width="132" height="183" /><text transform="matrix(1 0 0 1 184 150)" fill="#000000" font-weight="bold" stroke="none"><desc xmlns:eadoc="http://www.siemens.com/eauml/doc"><eadoc:guid>EAID_C5F9408F_1EC5_46b7_AF47_6181B9A50BEE</eadoc:guid><eadoc:name>Organizor</eadoc:name><eadoc:type>Class</eadoc:type></desc><tspan x="0" y="9">Organizor</tspan></text><path d="M142 167H274" /><text transform="matrix(1 0 0 1 147 171)" fill="#8B0000" stroke="none"><tspan x="0" y="9">- </tspan></text><text transform="matrix(1 0 0 1 164 171)" fill="#8B0000" stroke="none"><tspan x="0" y="9">email  :String</tspan></text><text transform="matrix(1 0 0 1 147 184)" fill="#8B0000" stroke="none"><tspan x="0" y="9">- </tspan></text><text transform="matrix(1 0 0 1 164 184)" fill="#8B0000" stroke="none"><tspan x="0" y="9">lastName  :String</tspan></text><text transform="matrix(1 0 0 1 147 197)" fill="#8B0000" stroke="none"><tspan x="0" y="9">- </tspan></text><text transform="matrix(1 0 0 1 164 197)" fill="#8B0000" stroke="none"><tspan x="0" y="9">password  :String</tspan></text><text transform="matrix(1 0 0 1 147 210)" fill="#8B0000" stroke="none"><tspan x="0" y="9">- </tspan></text><text transform="matrix(1 0 0 1 164 210)" fill="#8B0000" stroke="none"><tspan x="0" y="9">firstName  :String</tspan></text><rect fill="#C0BFC0" stroke="none" x="349" y="144" width="155" height="181" /><rect fill="#FCF2E3" stroke="none" x="346" y="141" width="155" height="181" /><rect x="346" y="141" width="155" height="181" /><text transform="matrix(1 0 0 1 399 150)" fill="#000000" font-weight="bold" stroke="none"><desc xmlns:eadoc="http://www.siemens.com/eauml/doc"><eadoc:guid>EAID_4544E064_0D60_42d7_A6E1_E8F0BDEA0806</eadoc:guid><eadoc:name>Campaign</eadoc:name><eadoc:type>Class</eadoc:type></desc><tspan x="0" y="9">Campaign</tspan></text><path d="M346 167H501" /><text transform="matrix(1 0 0 1 351 171)" fill="#8B0000" stroke="none"><tspan x="0" y="9">- </tspan></text><text transform="matrix(1 0 0 1 368 171)" fill="#8B0000" stroke="none"><tspan x="0" y="9">name  :String</tspan></text><text transform="matrix(1 0 0 1 351 184)" fill="#8B0000" stroke="none"><tspan x="0" y="9">- </tspan></text><text transform="matrix(1 0 0 1 368 184)" fill="#8B0000" stroke="none"><tspan x="0" y="9">donationMinimum  :double</tspan></text><text transform="matrix(1 0 0 1 351 197)" fill="#8B0000" stroke="none"><tspan x="0" y="9">- </tspan></text><text transform="matrix(1 0 0 1 368 197)" fill="#8B0000" stroke="none"><tspan x="0" y="9">targetAmount  :double</tspan></text><rect fill="#C0BFC0" stroke="none" x="586" y="146" width="195" height="177" /><rect fill="#FCF2E3" stroke="none" x="583" y="143" width="195" height="177" /><rect x="583" y="143" width="195" height="177" /><text transform="matrix(1 0 0 1 659 152)" fill="#000000" font-weight="bold" stroke="none"><desc xmlns:eadoc="http://www.siemens.com/eauml/doc"><eadoc:guid>EAID_C5A0D508_EB82_4a42_9830_27E1D397565C</eadoc:guid><eadoc:name>Donation</eadoc:name><eadoc:type>Class</eadoc:type></desc><tspan x="0" y="9">Donation</tspan></text><path d="M583 169H778" /><text transform="matrix(1 0 0 1 588 173)" fill="#8B0000" stroke="none"><tspan x="0" y="9">- </tspan></text><text transform="matrix(1 0 0 1 605 173)" fill="#8B0000" stroke="none"><tspan x="0" y="9">amount  :double</tspan></text><text transform="matrix(1 0 0 1 588 186)" fill="#8B0000" stroke="none"><tspan x="0" y="9">- </tspan></text><text transform="matrix(1 0 0 1 605 186)" fill="#8B0000" stroke="none"><tspan x="0" y="9">receiptRequested  :boolean</tspan></text><text transform="matrix(1 0 0 1 588 199)" fill="#8B0000" stroke="none"><tspan x="0" y="9">- </tspan></text><text transform="matrix(1 0 0 1 605 199)" fill="#8B0000" stroke="none"><tspan x="0" y="9">donorName  :String</tspan></text><rect fill="#F9E5C7" stroke="none" x="586" y="215" width="190" height="14" /><rect fill="#FAEBD5" stroke="none" x="587" y="216" width="188" height="12" /><text transform="matrix(1 0 0 1 589 216)" fill="#000000" stroke="none"><tspan x="0" y="9">«enum»</tspan></text><text transform="matrix(1 0 0 1 588 229)" fill="#8B0000" stroke="none"><tspan x="0" y="9">- </tspan></text><text transform="matrix(1 0 0 1 605 229)" fill="#8B0000" stroke="none"><tspan x="0" y="9">Status  :Status = IN_PROCESS</tspan></text><rect fill="#C0BFC0" stroke="none" x="600" y="371" width="168" height="69" /><rect fill="#FCF2E3" stroke="none" x="597" y="368" width="168" height="69" /><rect x="597" y="368" width="168" height="69" /><text transform="matrix(1 0 0 1 645 374)" fill="#000000" stroke="none"><tspan x="0" y="9">«enumeration»</tspan></text><text transform="matrix(1 0 0 1 666 387)" fill="#000000" font-weight="bold" stroke="none"><desc xmlns:eadoc="http://www.siemens.com/eauml/doc"><eadoc:guid>EAID_E09F32D8_D842_425d_8FA7_6B818517E5D5</eadoc:guid><eadoc:name>Status</eadoc:name><eadoc:type>Class</eadoc:type></desc><tspan x="0" y="9">Status</tspan></text><path d="M597 404H765" /><text transform="matrix(1 0 0 1 619 408)" fill="#8B0000" stroke="none"><tspan x="0" y="9">TRANSFERRED {readOnly}</tspan></text><path stroke="#8B0000" d="M619 420H747" /><text transform="matrix(1 0 0 1 619 421)" fill="#8B0000" stroke="none"><tspan x="0" y="9">IN_PROCESS {readOnly}</tspan></text><path stroke="#8B0000" d="M619 433H737" /><rect fill="#C0BFC0" stroke="none" x="352" y="404" width="135" height="87" /><rect fill="#FCF2E3" stroke="none" x="349" y="401" width="135" height="87" /><rect x="349" y="401" width="135" height="87" /><text transform="matrix(1 0 0 1 397 410)" fill="#000000" font-weight="bold" stroke="none"><desc xmlns:eadoc="http://www.siemens.com/eauml/doc"><eadoc:guid>EAID_9FBCB17D_DFD4_432c_944E_248B3DD7663E</eadoc:guid><eadoc:name>Account</eadoc:name><eadoc:type>Class</eadoc:type></desc><tspan x="0" y="9">Account</tspan></text><path d="M349 427H484" /><text transform="matrix(1 0 0 1 354 431)" fill="#8B0000" stroke="none"><tspan x="0" y="9">- </tspan></text><text transform="matrix(1 0 0 1 371 431)" fill="#8B0000" stroke="none"><tspan x="0" y="9">iban  :String</tspan></text><text transform="matrix(1 0 0 1 354 444)" fill="#8B0000" stroke="none"><tspan x="0" y="9">- </tspan></text><text transform="matrix(1 0 0 1 371 444)" fill="#8B0000" stroke="none"><tspan x="0" y="9">name  :String</tspan></text><text transform="matrix(1 0 0 1 354 457)" fill="#8B0000" stroke="none"><tspan x="0" y="9">- </tspan></text><text transform="matrix(1 0 0 1 371 457)" fill="#8B0000" stroke="none"><tspan x="0" y="9">nameOfBank  :String</tspan></text><path d="M681 321v47" /><path d="M420 401V323" /><path fill="#FCF2E3" stroke="none" d="M412 330.5C412 326.36 415.36 323 419.5 323C423.64 323 427 326.36 427 330.5C427 334.64 423.64 338 419.5 338C415.36 338 412 334.64 412 330.5" /><path d="M412 330.5C412 326.36 415.36 323 419.5 323C423.64 323 427 326.36 427 330.5C427 334.64 423.64 338 419.5 338C415.36 338 412 334.64 412 330.5M420 323v16m8 -8H412" /><g transform="matrix(1 0 0 -1 423 384)"><rect fill="#FFFFFF" stroke="none" x="0" width="6" y="-11" height="11" /></g><text transform="matrix(1 0 0 1 423 384)" fill="#000000" stroke="none"><tspan x="0" y="9">1</tspan></text><g transform="matrix(1 0 0 -1 432 328)"><rect fill="#FFFFFF" stroke="none" x="0" width="6" y="-11" height="11" /></g><text transform="matrix(1 0 0 1 432 328)" fill="#000000" stroke="none"><tspan x="0" y="9">1</tspan></text><path d="M275 232h71" /><g transform="matrix(1 0 0 -1 278 237)"><rect fill="#FFFFFF" stroke="none" x="0" width="6" y="-11" height="11" /></g><text transform="matrix(1 0 0 1 278 237)" fill="#000000" stroke="none"><tspan x="0" y="9">1</tspan></text><g transform="matrix(1 0 0 -1 339 237)"><rect fill="#FFFFFF" stroke="none" x="0" width="4" y="-11" height="11" /></g><text transform="matrix(1 0 0 1 339 237)" fill="#000000" stroke="none"><tspan x="0" y="9">*</tspan></text><path d="M502 232h81" /><g transform="matrix(1 0 0 -1 505 237)"><rect fill="#FFFFFF" stroke="none" x="0" width="6" y="-11" height="11" /></g><text transform="matrix(1 0 0 1 505 237)" fill="#000000" stroke="none"><tspan x="0" y="9">1</tspan></text><g transform="matrix(1 0 0 -1 576 237)"><rect fill="#FFFFFF" stroke="none" x="0" width="4" y="-11" height="11" /></g><text transform="matrix(1 0 0 1 576 237)" fill="#000000" stroke="none"><tspan x="0" y="9">*</tspan></text><path d="M471 401L583 311" /><path fill="#FCF2E3" stroke="none" d="M569 315.5C569 311.36 572.36 308 576.5 308C580.64 308 584 311.36 584 315.5C584 319.64 580.64 323 576.5 323C572.36 323 569 319.64 569 315.5" /><path d="M569 315.5C569 311.36 572.36 308 576.5 308C580.64 308 584 311.36 584 315.5C584 319.64 580.64 323 576.5 323C572.36 323 569 319.64 569 315.5M583 311l-12 10m11 1L572 310" /><g transform="matrix(1 0 0 -1 474 384)"><rect fill="#FFFFFF" stroke="none" x="0" width="6" y="-11" height="11" /></g><text transform="matrix(1 0 0 1 474 384)" fill="#000000" stroke="none"><tspan x="0" y="9">1</tspan></text><g transform="matrix(1 0 0 -1 574 316)"><rect fill="#FFFFFF" stroke="none" x="0" width="6" y="-11" height="11" /></g><text transform="matrix(1 0 0 1 574 316)" fill="#000000" stroke="none"><tspan x="0" y="9">1</tspan></text></g></g></g></g></svg>