<?xml version="1.0" encoding="utf-8"?><svg version="1.1" preserveAspectRatio="xMidYMid" xml:space="preserve" width="280.3911pt" height="190.0389pt" viewBox="105.5158 65.6244 280.3911 190.0389" xmlns="http://www.w3.org/2000/svg" xmlns:xlink="http://www.w3.org/1999/xlink"><g transform="matrix(1 0 0 -1 0 816)"><g stroke="#000000" fill="none" fill-rule="evenodd" stroke-width="1" stroke-linecap="round" stroke-linejoin="round" stroke-miterlimit="3" letter-spacing="normal" font-weight="normal" font-style="normal" baseline-shift="0"><g transform="matrix(0.75 0 0 0.75 0 816.450012)"><g transform="matrix(0.957939 0 0 -0.958892 0 0)" font-family="Arial" font-size="10"><text transform="matrix(1 0 0 1 161 104)" fill="#000000" font-size="18" font-weight="bold" stroke="none"><tspan x="0" y="17">Edit campaign data</tspan></text><rect fill="#C0C0C0" stroke="none" x="158" y="151" width="89" height="19" /><rect x="158" y="151" width="89" height="19" /><text transform="matrix(1 0 0 1 184 154)" fill="#000000" stroke="none"><tspan x="0" y="9">General</tspan></text><rect fill="#C0C0C0" stroke="none" x="247" y="151" width="89" height="19" /><rect x="247" y="151" width="89" height="19" /><text transform="matrix(1 0 0 1 252 154)" fill="#000000" stroke="none"><tspan x="0" y="9">Bank details</tspan></text><rect fill="#C0C0C0" stroke="none" x="158" y="170" width="368" height="138" /><rect x="158" y="170" width="368" height="138" /><text transform="matrix(1 0 0 1 180 206)" fill="#000000" stroke="none"><tspan x="0" y="9">Name:</tspan></text><rect fill="#FFFFFF" stroke="none" x="266" y="201" width="144" height="19" /><rect x="266" y="201" width="144" height="19" /><text transform="matrix(1 0 0 1 271 204)" fill="#000000" stroke="none"><tspan x="0" y="9">Max Mustermann</tspan></text><text transform="matrix(1 0 0 1 180 240)" fill="#000000" stroke="none"><tspan x="0" y="9">IBAN:</tspan></text><rect fill="#FFFFFF" stroke="none" x="266" y="236" width="144" height="19" /><rect x="266" y="236" width="144" height="19" /><text transform="matrix(1 0 0 1 271 239)" fill="#000000" stroke="none"><tspan x="0" y="9">DE44123456780100200300</tspan></text><rect fill="#C0C0C0" stroke="none" x="159" y="325" width="89" height="19" /><rect x="159" y="325" width="89" height="19" /><text transform="matrix(1 0 0 1 192 328)" fill="#000000" stroke="none"><tspan x="0" y="9">Save</tspan></text><rect fill="#C0C0C0" stroke="none" x="436" y="326" width="89" height="19" /><rect x="436" y="326" width="89" height="19" /><text transform="matrix(1 0 0 1 464 329)" fill="#000000" stroke="none"><tspan x="0" y="9">Cancel</tspan></text><text transform="matrix(1 0 0 1 180 272)" fill="#000000" stroke="none"><tspan x="0" y="9">Name of Bank:</tspan></text><rect fill="#FFFFFF" stroke="none" x="266" y="270" width="144" height="19" /><rect x="266" y="270" width="144" height="19" /><text transform="matrix(1 0 0 1 271 273)" fill="#000000" stroke="none"><tspan x="0" y="9">ABC Bank</tspan></text></g></g></g></g></svg>