<?xml version="1.0" encoding="utf-8"?><svg version="1.1" preserveAspectRatio="xMidYMid" xml:space="preserve" width="453.29217pt" height="120.3387pt" viewBox="44.50383 118.1955 453.29217 120.3387" xmlns="http://www.w3.org/2000/svg" xmlns:xlink="http://www.w3.org/1999/xlink"><desc xmlns:eadoc="http://www.siemens.com/eauml/doc"><eadoc:guid>EAID_24A1E390_CDEF_49e6_B4FE_1E00BCEC7B5D</eadoc:guid><eadoc:name>Use Case "Create new campaign"</eadoc:name><eadoc:type>Diagram</eadoc:type><eadoc:note></eadoc:note></desc><g transform="matrix(1 0 0 -1 0 816)"><g stroke="#000000" fill="none" fill-rule="evenodd" stroke-width="1" stroke-linecap="round" stroke-linejoin="round" stroke-miterlimit="3" letter-spacing="normal" font-weight="normal" font-style="normal" baseline-shift="0"><g transform="matrix(0.75 0 0 0.75 0 816.450012)"><g transform="matrix(0.958974 0 0 -0.959436 0 0)" font-family="Arial" font-size="10"><path fill="#FCF2E3" stroke="none" d="M158 202.5C158 194.49 164.49 188 172.5 188C180.51 188 187 194.49 187 202.5C187 210.51 180.51 217 172.5 217C164.49 217 158 210.51 158 202.5" /><path d="M158 202.5C158 194.49 164.49 188 172.5 188C180.51 188 187 194.49 187 202.5C187 210.51 180.51 217 172.5 217C164.49 217 158 210.51 158 202.5" /><path fill="#FCF2E3" d="M173 194l-8 13h16 Z" /><text transform="matrix(1 0 0 1 73 222)" fill="#000000" stroke="none"><tspan x="0" y="9">Clicking button "Add campaign"</tspan></text><path fill="#FCF2E3" stroke="none" d="M257 222.5C257 214.49 263.49 208 271.5 208C279.51 208 286 214.49 286 222.5C286 230.51 279.51 237 271.5 237C263.49 237 257 230.51 257 222.5" /><path d="M257 222.5C257 214.49 263.49 208 271.5 208C279.51 208 286 214.49 286 222.5C286 230.51 279.51 237 271.5 237C263.49 237 257 230.51 257 222.5" /><path fill="#FCF2E3" stroke="none" d="M260 222.5C260 216.15 265.15 211 271.5 211C277.85 211 283 216.15 283 222.5C283 228.85 277.85 234 271.5 234C265.15 234 260 228.85 260 222.5" /><path d="M260 222.5C260 216.15 265.15 211 271.5 211C277.85 211 283 216.15 283 222.5C283 228.85 277.85 234 271.5 234C265.15 234 260 228.85 260 222.5" /><path fill="#FCF2E3" d="M264 218l3 -3l5 6l5 -6l3 3l-6 5l6 5l-3 3l-5 -6l-5 6l-3 -3l6 -5l-6 -5 Z" /><text transform="matrix(1 0 0 1 227 243)" fill="#000000" stroke="none"><tspan x="0" y="9">Edit cancelled</tspan></text><path stroke="#C0BFC0" fill="#C0BFC0" d="M384 234C384 237 382 239 379 239H280C277 239 275 237 275 234V185C275 182 277 180 280 180h99C382 180 384 182 384 185 Z Z" /><path fill="#FCF2E3" d="M381 231C381 234 379 236 376 236H277C274 236 272 234 272 231V182C272 179 274 177 277 177h99C379 177 381 179 381 182 Z Z" /><rect fill="#FCF2E3" x="320" y="219" width="15" height="15" /><path d="M322 227h5m5 0h-5m0 -5v5m0 5v-5" /><text transform="matrix(1 0 0 1 280 194)" fill="#000000" stroke="none"><desc xmlns:eadoc="http://www.siemens.com/eauml/doc"><eadoc:guid>EAID_69E95318_4137_4353_AF27_69DD4F146EDA</eadoc:guid><eadoc:name>Edit campaign data</eadoc:name><eadoc:type>Activity</eadoc:type></desc><tspan x="0" y="9">Edit campaign data</tspan></text><path fill="#FCF2E3" stroke="none" d="M257 222.5C257 214.49 263.49 208 271.5 208C279.51 208 286 214.49 286 222.5C286 230.51 279.51 237 271.5 237C263.49 237 257 230.51 257 222.5" /><path d="M257 222.5C257 214.49 263.49 208 271.5 208C279.51 208 286 214.49 286 222.5C286 230.51 279.51 237 271.5 237C263.49 237 257 230.51 257 222.5" /><path fill="#FCF2E3" stroke="none" d="M260 222.5C260 216.15 265.15 211 271.5 211C277.85 211 283 216.15 283 222.5C283 228.85 277.85 234 271.5 234C265.15 234 260 228.85 260 222.5" /><path d="M260 222.5C260 216.15 265.15 211 271.5 211C277.85 211 283 216.15 283 222.5C283 228.85 277.85 234 271.5 234C265.15 234 260 228.85 260 222.5" /><path fill="#FCF2E3" d="M264 218l3 -3l5 6l5 -6l3 3l-6 5l6 5l-3 3l-5 -6l-5 6l-3 -3l6 -5l-6 -5 Z" /><text transform="matrix(1 0 0 1 227 243)" fill="#000000" stroke="none"><tspan x="0" y="9">Edit cancelled</tspan></text><path stroke="#C0BFC0" fill="#C0BFC0" d="M569 233C569 236 567 238 564 238H439C436 238 434 236 434 233V184C434 181 436 179 439 179H564C567 179 569 181 569 184 Z Z" /><path fill="#FCF2E3" d="M566 230C566 233 564 235 561 235H436C433 235 431 233 431 230V181C431 178 433 176 436 176H561C564 176 566 178 566 181 Z Z" /><text transform="matrix(1 0 0 1 447 193)" fill="#000000" stroke="none"><desc xmlns:eadoc="http://www.siemens.com/eauml/doc"><eadoc:guid>EAID_A0EB464D_2A6E_4482_BD91_7AEC07A2A07E</eadoc:guid><eadoc:name>Create new campaign</eadoc:name><eadoc:type>Activity</eadoc:type></desc><tspan x="0" y="9">Create new campaign</tspan></text><path fill="#FCF2E3" stroke-width="3" d="M642 208C642 216 636 222 627 222C619 222 613 216 613 207C613 199 619 193 628 193C636 193 642 199 642 208 Z Z" /><path fill="#000000" d="M635 207C635 212 632 215 627 215C623 215 620 212 620 207C620 203 623 200 627 200C632 200 635 203 635 207 Z Z" /><text transform="matrix(1 0 0 1 617 226)" fill="#000000" stroke="none"><tspan x="0" y="9">End</tspan></text><path d="M270 238v77m0 0C270 318 273 321 276 321M276 321H675m0 0C678 321 681 318 681 315M681 315V213m0 0C681 210 678 207 675 207M675 207H643" /><path fill="#000000" d="M643 207l16 6V201 Z" /><path d="M382 206h49" /><path fill="#000000" d="M431 206l-16 -6v12 Z" /><path d="M567 207h46" /><path fill="#000000" d="M613 207l-16 -6v12 Z" /><path d="M188 203h84" /><path fill="#000000" d="M272 203l-16 -6v12 Z" /></g></g></g></g></svg>