<?xml version="1.0" encoding="utf-8"?><svg version="1.1" preserveAspectRatio="xMidYMid" xml:space="preserve" width="280.3911pt" height="193.6347pt" viewBox="105.5158 65.6244 280.3911 193.6347" xmlns="http://www.w3.org/2000/svg" xmlns:xlink="http://www.w3.org/1999/xlink"><g transform="matrix(1 0 0 -1 0 816)"><g stroke="#000000" fill="none" fill-rule="evenodd" stroke-width="1" stroke-linecap="round" stroke-linejoin="round" stroke-miterlimit="3" letter-spacing="normal" font-weight="normal" font-style="normal" baseline-shift="0"><g transform="matrix(0.75 0 0 0.75 0 816.450012)"><g transform="matrix(0.957939 0 0 -0.958892 0 0)" font-family="Arial" font-size="10"><text transform="matrix(1 0 0 1 161 104)" fill="#000000" font-size="18" font-weight="bold" stroke="none"><tspan x="0" y="17">Edit campaign data</tspan></text><rect fill="#C0C0C0" stroke="none" x="158" y="151" width="89" height="19" /><rect x="158" y="151" width="89" height="19" /><text transform="matrix(1 0 0 1 163 154)" fill="#000000" stroke="none"><tspan x="0" y="9">General</tspan></text><rect fill="#C0C0C0" stroke="none" x="247" y="151" width="89" height="19" /><rect x="247" y="151" width="89" height="19" /><text transform="matrix(1 0 0 1 263 154)" fill="#000000" stroke="none"><tspan x="0" y="9">Bank details</tspan></text><rect fill="#C0C0C0" stroke="none" x="158" y="170" width="368" height="142" /><rect x="158" y="170" width="368" height="142" /><text transform="matrix(1 0 0 1 171 204)" fill="#000000" stroke="none"><tspan x="0" y="9">Name:</tspan></text><rect fill="#FFFFFF" stroke="none" x="266" y="201" width="111" height="19" /><rect x="266" y="201" width="111" height="19" /><text transform="matrix(1 0 0 1 271 204)" fill="#000000" stroke="none"><tspan x="0" y="9">Rollstuhl für Maria</tspan></text><text transform="matrix(1 0 0 1 171 239)" fill="#000000" stroke="none"><tspan x="0" y="9">Target amount:</tspan></text><rect fill="#FFFFFF" stroke="none" x="266" y="236" width="111" height="19" /><rect x="266" y="236" width="111" height="19" /><text transform="matrix(1 0 0 1 271 239)" fill="#000000" stroke="none"><tspan x="0" y="9">1000</tspan></text><text transform="matrix(1 0 0 1 171 274)" fill="#000000" stroke="none"><tspan x="0" y="9">Donation minimum:</tspan></text><rect fill="#FFFFFF" stroke="none" x="266" y="270" width="111" height="19" /><rect x="266" y="270" width="111" height="19" /><text transform="matrix(1 0 0 1 271 273)" fill="#000000" stroke="none"><tspan x="0" y="9">20</tspan></text><text transform="matrix(1 0 0 1 387 240)" fill="#000000" stroke="none"><tspan x="0" y="9">EURO</tspan></text><text transform="matrix(1 0 0 1 387 274)" fill="#000000" stroke="none"><tspan x="0" y="9">EURO</tspan></text><rect fill="#C0C0C0" stroke="none" x="159" y="330" width="89" height="19" /><rect x="159" y="330" width="89" height="19" /><text transform="matrix(1 0 0 1 192 333)" fill="#000000" stroke="none"><tspan x="0" y="9">Save</tspan></text><rect fill="#C0C0C0" stroke="none" x="436" y="331" width="89" height="19" /><rect x="436" y="331" width="89" height="19" /><text transform="matrix(1 0 0 1 464 334)" fill="#000000" stroke="none"><tspan x="0" y="9">Cancel</tspan></text></g></g></g></g></svg>