<?xml version="1.0" encoding="utf-8"?><svg version="1.1" preserveAspectRatio="xMidYMid" xml:space="preserve" width="432.43449999999995pt" height="148.40221pt" viewBox="95.5692 82.21669 432.43449999999995 148.40221" xmlns="http://www.w3.org/2000/svg" xmlns:xlink="http://www.w3.org/1999/xlink"><desc xmlns:eadoc="http://www.siemens.com/eauml/doc"><eadoc:guid>EAID_F7D15EF3_8D00_4759_98D9_9A8DED6E0415</eadoc:guid><eadoc:name>Use Case "Delete campaign"</eadoc:name><eadoc:type>Diagram</eadoc:type><eadoc:note></eadoc:note></desc><g transform="matrix(1 0 0 -1 0 816)"><g stroke="#000000" fill="none" fill-rule="evenodd" stroke-width="1" stroke-linecap="round" stroke-linejoin="round" stroke-miterlimit="3" letter-spacing="normal" font-weight="normal" font-style="normal" baseline-shift="0"><g transform="matrix(0.75 0 0 0.75 0 816.450012)"><g transform="matrix(0.958974 0 0 -0.959436 0 0)" font-family="Arial" font-size="10"><path fill="#FCF2E3" stroke="none" d="M144 211.5C144 203.49 150.49 197 158.5 197C166.51 197 173 203.49 173 211.5C173 219.51 166.51 226 158.5 226C150.49 226 144 219.51 144 211.5" /><path d="M144 211.5C144 203.49 150.49 197 158.5 197C166.51 197 173 203.49 173 211.5C173 219.51 166.51 226 158.5 226C150.49 226 144 219.51 144 211.5" /><text transform="matrix(1 0 0 1 146 229)" fill="#000000" stroke="none"><tspan x="0" y="9">Start</tspan></text><path stroke="#C0BFC0" fill="#C0BFC0" d="M315 242C315 245 313 247 310 247H211C208 247 206 245 206 242V193C206 190 208 188 211 188h99C313 188 315 190 315 193 Z Z" /><path fill="#FCF2E3" d="M312 239C312 242 310 244 307 244H208C205 244 203 242 203 239V190C203 187 205 185 208 185h99C310 185 312 187 312 190 Z Z" /><text transform="matrix(1 0 0 1 219 202)" fill="#000000" stroke="none"><tspan x="0" y="9">Display message</tspan></text><text transform="matrix(1 0 0 1 243 216)" fill="#000000" stroke="none"><tspan x="0" y="9">dialog</tspan></text><path fill="#FCF2E3" d="M496 213l21 -21l21 21l-21 21L496 213 Z" /><text transform="matrix(1 0 0 1 474 236)" fill="#000000" stroke="none"><tspan x="0" y="9">Campaign should be deleted?</tspan></text><path stroke="#C0BFC0" fill="#C0BFC0" d="M723 183C723 186 721 188 718 188H619C616 188 614 186 614 183V134C614 131 616 129 619 129h99C721 129 723 131 723 134 Z Z" /><path fill="#FCF2E3" d="M720 180C720 183 718 185 715 185H616C613 185 611 183 611 180V131C611 128 613 126 616 126h99C718 126 720 128 720 131 Z Z" /><text transform="matrix(1 0 0 1 625 143)" fill="#000000" stroke="none"><desc xmlns:eadoc="http://www.siemens.com/eauml/doc"><eadoc:guid>EAID_13860477_C720_486f_BBFE_E5C09A1E839D</eadoc:guid><eadoc:name>Delete campaign</eadoc:name><eadoc:type>Activity</eadoc:type></desc><tspan x="0" y="9">Delete campaign</tspan></text><path fill="#FCF2E3" stroke-width="3" d="M680 284C680 292 674 298 665 298C657 298 651 292 651 284C651 275 657 269 666 269C674 269 680 275 680 284 Z Z" /><path fill="#000000" d="M673 284C673 288 670 291 665 291C661 291 658 288 658 284C658 279 661 276 665 276C670 276 673 279 673 284 Z Z" /><text transform="matrix(1 0 0 1 653 301)" fill="#000000" stroke="none"><tspan x="0" y="9">End</tspan></text><path stroke="#C0BFC0" fill="#C0BFC0" d="M459 244C459 247 457 249 454 249H355C352 249 350 247 350 244V195C350 192 352 190 355 190h99C457 190 459 192 459 195 Z Z" /><path fill="#FCF2E3" d="M456 241C456 244 454 246 451 246H352C349 246 347 244 347 241V192C347 189 349 187 352 187h99C454 187 456 189 456 192 Z Z" /><text transform="matrix(1 0 0 1 368 204)" fill="#000000" stroke="none"><desc xmlns:eadoc="http://www.siemens.com/eauml/doc"><eadoc:guid>EAID_9B059691_4B54_4f92_8B45_902C23A09DCE</eadoc:guid><eadoc:name>Make decision</eadoc:name><eadoc:type>Activity</eadoc:type></desc><tspan x="0" y="9">Make decision</tspan></text><path d="M355 197C351 198 350 198 349 203M349 203v2m0 0h16m0 0v-2m0 0C364 198 363 198 359 197M355 196v2m0 0h4m0 0v-2m-5 7v2m6 -2v2m-1 -8C367 186 347 186 355 197" /><g fill="#000000"><g transform="matrix(1.042781 0 0 -1.042279 0 0)"><g transform="matrix(0.958974 0 0 -0.959436 0 0)"><path d="M361 193C362 187 352 187 353 193h8 Z" /></g></g></g><path d="M457 215h39" /><path fill="#000000" d="M496 215l-16 -6v12 Z" /><path d="M313 215h34" /><path fill="#000000" d="M347 215l-16 -6v12 Z" /><path d="M174 212h29" /><path fill="#000000" d="M203 212l-16 -6v12 Z" /><path d="M666 186v83" /><path fill="#000000" d="M666 269l6 -16H660 Z" /><path d="M517 234v45m0 0C517 282 520 285 523 285M523 285H651" /><path fill="#000000" d="M651 285l-16 -6v12 Z" /><g transform="matrix(1 0 0 -1 636 267)"><rect fill="#FFFFFF" stroke="none" x="0" width="13" y="-11" height="11" /></g><text transform="matrix(1 0 0 1 636 267)" fill="#000000" stroke="none"><tspan x="0" y="9">no</tspan></text><path d="M517 192V177m0 0C517 174 520 171 523 171M523 171h88" /><path fill="#000000" d="M611 171l-16 -6v12 Z" /><g transform="matrix(1 0 0 -1 593 153)"><rect fill="#FFFFFF" stroke="none" x="0" width="16" y="-11" height="11" /></g><text transform="matrix(1 0 0 1 593 153)" fill="#000000" stroke="none"><tspan x="0" y="9">yes</tspan></text></g></g></g></g></svg>