<?xml version="1.0" encoding="utf-8"?><svg version="1.1" preserveAspectRatio="xMidYMid" xml:space="preserve" width="459.04595000000006pt" height="284.4022pt" viewBox="89.81535 139.7829 459.04595000000006 284.4022" xmlns="http://www.w3.org/2000/svg" xmlns:xlink="http://www.w3.org/1999/xlink"><desc xmlns:eadoc="http://www.siemens.com/eauml/doc"><eadoc:guid>EAID_1F18E3B9_7240_4410_96C2_44D3FA45C4A9</eadoc:guid><eadoc:name>Use Case "Donate money"</eadoc:name><eadoc:type>Diagram</eadoc:type><eadoc:note></eadoc:note></desc><g transform="matrix(1 0 0 -1 0 816)"><g stroke="#000000" fill="none" fill-rule="evenodd" stroke-width="1" stroke-linecap="round" stroke-linejoin="round" stroke-miterlimit="3" letter-spacing="normal" font-weight="normal" font-style="normal" baseline-shift="0"><g transform="matrix(0.75 0 0 0.75 0 816.450012)"><g transform="matrix(0.958974 0 0 -0.959436 0 0)" font-family="Arial" font-size="10"><path fill="#FCF2E3" stroke="none" d="M149 236.5C149 228.49 155.49 222 163.5 222C171.51 222 178 228.49 178 236.5C178 244.51 171.51 251 163.5 251C155.49 251 149 244.51 149 236.5" /><path d="M149 236.5C149 228.49 155.49 222 163.5 222C171.51 222 178 228.49 178 236.5C178 244.51 171.51 251 163.5 251C155.49 251 149 244.51 149 236.5" /><text transform="matrix(1 0 0 1 151 254)" fill="#000000" stroke="none"><tspan x="0" y="9">Start</tspan></text><path stroke="#C0BFC0" fill="#C0BFC0" d="M333 266C333 269 331 271 328 271H229C226 271 224 269 224 266V217C224 214 226 212 229 212h99C331 212 333 214 333 217 Z Z" /><path fill="#FCF2E3" d="M330 263C330 266 328 268 325 268H226C223 268 221 266 221 263V214C221 211 223 209 226 209h99C328 209 330 211 330 214 Z Z" /><text transform="matrix(1 0 0 1 230 226)" fill="#000000" stroke="none"><tspan x="0" y="9">Load URL encoded</tspan></text><text transform="matrix(1 0 0 1 252 240)" fill="#000000" stroke="none"><tspan x="0" y="9">campaign</tspan></text><path stroke="#C0BFC0" fill="#C0BFC0" d="M482 265C482 268 480 270 477 270H378C375 270 373 268 373 265V216C373 213 375 211 378 211h99C480 211 482 213 482 216 Z Z" /><path fill="#FCF2E3" d="M479 262C479 265 477 267 474 267H375C372 267 370 265 370 262V213C370 210 372 208 375 208h99C477 208 479 210 479 213 Z Z" /><text transform="matrix(1 0 0 1 391 225)" fill="#000000" stroke="none"><tspan x="0" y="9">Display screen</tspan></text><text transform="matrix(1 0 0 1 386 239)" fill="#000000" stroke="none"><tspan x="0" y="9">"Donate money"</tspan></text><path stroke="#C0BFC0" fill="#C0BFC0" d="M628 264C628 267 626 269 623 269H524C521 269 519 267 519 264V215C519 212 521 210 524 210h99C626 210 628 212 628 215 Z Z" /><path fill="#FCF2E3" d="M625 261C625 264 623 266 620 266H521C518 266 516 264 516 261V212C516 209 518 207 521 207h99C623 207 625 209 625 212 Z Z" /><text transform="matrix(1 0 0 1 532 224)" fill="#000000" stroke="none"><tspan x="0" y="9">Fill out donation</tspan></text><text transform="matrix(1 0 0 1 560 238)" fill="#000000" stroke="none"><tspan x="0" y="9">form</tspan></text><path d="M524 217C520 218 519 218 518 223M518 223v2m0 0h16m0 0v-2m0 0C533 218 532 218 528 217M524 216v2m0 0h4m0 0v-2m-5 7v2m6 -2v2m-1 -8C536 206 516 206 524 217" /><g fill="#000000"><g transform="matrix(1.042781 0 0 -1.042279 0 0)"><g transform="matrix(0.958974 0 0 -0.959436 0 0)"><path d="M530 213C531 207 521 207 522 213h8 Z" /></g></g></g><path stroke="#C0BFC0" fill="#C0BFC0" d="M256 468C256 471 254 473 251 473H152C149 473 147 471 147 468V419C147 416 149 414 152 414h99C254 414 256 416 256 419 Z Z" /><path fill="#FCF2E3" d="M253 465C253 468 251 470 248 470H149C146 470 144 468 144 465V416C144 413 146 411 149 411h99C251 411 253 413 253 416 Z Z" /><text transform="matrix(1 0 0 1 173 428)" fill="#000000" stroke="none"><desc xmlns:eadoc="http://www.siemens.com/eauml/doc"><eadoc:guid>EAID_A62626A6_82B0_4522_92A1_1C6E94CFFA1F</eadoc:guid><eadoc:name>Check data</eadoc:name><eadoc:type>Activity</eadoc:type></desc><tspan x="0" y="9">Check data</tspan></text><path fill="#FCF2E3" stroke="none" d="M678 234.5C678 226.49 684.49 220 692.5 220C700.51 220 707 226.49 707 234.5C707 242.51 700.51 249 692.5 249C684.49 249 678 242.51 678 234.5" /><path d="M678 234.5C678 226.49 684.49 220 692.5 220C700.51 220 707 226.49 707 234.5C707 242.51 700.51 249 692.5 249C684.49 249 678 242.51 678 234.5" /><path fill="#FCF2E3" stroke="none" d="M681 234.5C681 228.15 686.15 223 692.5 223C698.85 223 704 228.15 704 234.5C704 240.85 698.85 246 692.5 246C686.15 246 681 240.85 681 234.5" /><path d="M681 234.5C681 228.15 686.15 223 692.5 223C698.85 223 704 228.15 704 234.5C704 240.85 698.85 246 692.5 246C686.15 246 681 240.85 681 234.5" /><path fill="#FCF2E3" d="M693 226l-8 13h16 Z" /><text transform="matrix(1 0 0 1 632 253)" fill="#000000" stroke="none"><tspan x="0" y="9">Wait for button "Donate"</tspan></text><path fill="#FCF2E3" d="M328 440l21 -21l21 21l-21 21L328 440 Z" /><text transform="matrix(1 0 0 1 319 466)" fill="#000000" stroke="none"><tspan x="0" y="9">Data valid?</tspan></text><path stroke="#C0BFC0" fill="#C0BFC0" d="M555 477C555 480 553 482 550 482H444C441 482 439 480 439 477V412C439 409 441 407 444 407H550C553 407 555 409 555 412 Z Z" /><path fill="#FCF2E3" d="M552 474C552 477 550 479 547 479H441C438 479 436 477 436 474V409C436 406 438 404 441 404H547C550 404 552 406 552 409 Z Z" /><text transform="matrix(1 0 0 1 445 421)" fill="#000000" stroke="none"><tspan x="0" y="9">Create donation with</tspan></text><text transform="matrix(1 0 0 1 443 435)" fill="#000000" stroke="none"><tspan x="0" y="9">status IN_PROGRESS</tspan></text><path fill="#FCF2E3" stroke-width="3" d="M547 547C547 555 541 561 532 561C524 561 518 555 518 546C518 538 524 532 533 532C541 532 547 538 547 547 Z Z" /><path fill="#000000" d="M540 546C540 551 537 554 532 554C528 554 525 551 525 546C525 542 528 539 533 539C537 539 540 542 540 546 Z Z" /><text transform="matrix(1 0 0 1 520 564)" fill="#000000" stroke="none"><tspan x="0" y="9">End</tspan></text><path stroke="#C0BFC0" fill="#C0BFC0" d="M410 381C410 384 408 386 405 386H306C303 386 301 384 301 381V332C301 329 303 327 306 327h99C408 327 410 329 410 332 Z Z" /><path fill="#FCF2E3" d="M407 378C407 381 405 383 402 383H303C300 383 298 381 298 378V329C298 326 300 324 303 324h99C405 324 407 326 407 329 Z Z" /><text transform="matrix(1 0 0 1 322 341)" fill="#000000" stroke="none"><desc xmlns:eadoc="http://www.siemens.com/eauml/doc"><eadoc:guid>EAID_A829645E_5268_4895_B707_BFBBE234A517</eadoc:guid><eadoc:name>Display errors</eadoc:name><eadoc:type>Activity</eadoc:type></desc><tspan x="0" y="9">Display errors</tspan></text><path stroke="#C0BFC0" fill="#C0BFC0" d="M490 574C490 577 488 579 485 579H386C383 579 381 577 381 574V525C381 522 383 520 386 520h99C488 520 490 522 490 525 Z Z" /><path fill="#FCF2E3" d="M487 571C487 574 485 576 482 576H383C380 576 378 574 378 571V522C378 519 380 517 383 517h99C485 517 487 519 487 522 Z Z" /><text transform="matrix(1 0 0 1 394 534)" fill="#000000" stroke="none"><tspan x="0" y="9">Change status to</tspan></text><text transform="matrix(1 0 0 1 395 548)" fill="#000000" stroke="none"><tspan x="0" y="9">TRANSFERRED</tspan></text><path fill="#FCF2E3" stroke="none" d="M150 546.5C150 538.49 156.49 532 164.5 532C172.51 532 179 538.49 179 546.5C179 554.51 172.51 561 164.5 561C156.49 561 150 554.51 150 546.5" /><path d="M150 546.5C150 538.49 156.49 532 164.5 532C172.51 532 179 538.49 179 546.5C179 554.51 172.51 561 164.5 561C156.49 561 150 554.51 150 546.5" /><path fill="#FCF2E3" stroke="none" d="M157 546.5C157 542.36 160.36 539 164.5 539C168.64 539 172 542.36 172 546.5C172 550.64 168.64 554 164.5 554C160.36 554 157 550.64 157 546.5" /><path d="M157 546.5C157 542.36 160.36 539 164.5 539C168.64 539 172 542.36 172 546.5C172 550.64 168.64 554 164.5 554C160.36 554 157 550.64 157 546.5M165 539v8m0 0h8" /><text transform="matrix(1 0 0 1 136 563)" fill="#000000" stroke="none"><tspan x="0" y="9">Every 5 minutes</tspan></text><path stroke="#C0BFC0" fill="#C0BFC0" d="M345 574C345 577 343 579 340 579H241C238 579 236 577 236 574V525C236 522 238 520 241 520h99C343 520 345 522 345 525 Z Z" /><path fill="#FCF2E3" d="M342 571C342 574 340 576 337 576H238C235 576 233 574 233 571V522C233 519 235 517 238 517h99C340 517 342 519 342 522 Z Z" /><text transform="matrix(1 0 0 1 248 534)" fill="#000000" stroke="none"><tspan x="0" y="9">Select donations</tspan></text><text transform="matrix(1 0 0 1 263 548)" fill="#000000" stroke="none"><tspan x="0" y="9">with status</tspan></text><text transform="matrix(1 0 0 1 254 562)" fill="#000000" stroke="none"><tspan x="0" y="9">IN_PROGESS</tspan></text><path fill="#FCF2E3" stroke-width="3" d="M616 442C616 450 610 456 601 456C593 456 587 450 587 441C587 433 593 427 602 427C610 427 616 433 616 442 Z Z" /><path fill="#000000" d="M609 442C609 446 606 449 601 449C597 449 594 446 594 441C594 437 597 434 601 434C606 434 609 437 609 442 Z Z" /><text transform="matrix(1 0 0 1 589 459)" fill="#000000" stroke="none"><tspan x="0" y="9">End</tspan></text><path d="M349 419V384" /><path fill="#000000" d="M349 384l-6 16h12 Z" /><g transform="matrix(1 0 0 -1 329 389)"><rect fill="#FFFFFF" stroke="none" x="0" width="13" y="-11" height="11" /></g><text transform="matrix(1 0 0 1 329 389)" fill="#000000" stroke="none"><tspan x="0" y="9">no</tspan></text><path d="M370 440h66" /><path fill="#000000" d="M436 440l-16 -6v12 Z" /><g transform="matrix(1 0 0 -1 418 422)"><rect fill="#FFFFFF" stroke="none" x="0" width="16" y="-11" height="11" /></g><text transform="matrix(1 0 0 1 418 422)" fill="#000000" stroke="none"><tspan x="0" y="9">yes</tspan></text><path d="M254 440h74" /><path fill="#000000" d="M328 440l-16 -6v12 Z" /><path d="M708 233h25m0 0C736 233 739 236 739 239M739 239v58m0 0C739 300 736 303 733 303M733 303H208m0 0C205 303 202 306 202 309M202 309V411" /><path fill="#000000" d="M202 411l6 -16H196 Z" /><path d="M626 236h52" /><path fill="#000000" d="M678 236l-16 -6v12 Z" /><path d="M553 442h34" /><path fill="#000000" d="M587 442l-16 -6v12 Z" /><path d="M488 547h30" /><path fill="#000000" d="M518 547l-16 -6v12 Z" /><path d="M480 237h36" /><path fill="#000000" d="M516 237l-16 -6v12 Z" /><path d="M331 238h39" /><path fill="#000000" d="M370 238l-16 -6v12 Z" /><path d="M179 237h42" /><path fill="#000000" d="M221 237l-16 -6v12 Z" /><path d="M343 547h35" /><path fill="#000000" d="M378 547l-16 -6v12 Z" /><path d="M180 547h53" /><path fill="#000000" d="M233 547l-16 -6v12 Z" /><path d="M408 353H563m0 0C566 353 569 350 569 347M569 347L568.12 307.5C568.08 307.5 568.04 307.5 568 307.5C565.46 297 563 299.46 563 302.5C563 305.54 565.46 308 568.5 308C568.05 296.5 568.1 296.5 568.16 296.5M568 296l1 -29" /><path fill="#000000" d="M569 267l-6 16h12 Z" /></g></g></g></g></svg>