<?xml version="1.0" encoding="utf-8"?><svg version="1.1" preserveAspectRatio="xMidYMid" xml:space="preserve" width="566.1619499999999pt" height="462.30461pt" viewBox="48.09495 25.902589999999996 566.1619499999999 462.30461" xmlns="http://www.w3.org/2000/svg" xmlns:xlink="http://www.w3.org/1999/xlink"><desc xmlns:eadoc="http://www.siemens.com/eauml/doc"><eadoc:guid>EAID_4694B465_5855_4aae_B415_2FACAF21EA99</eadoc:guid><eadoc:name>Primary Use Cases</eadoc:name><eadoc:type>Diagram</eadoc:type><eadoc:note></eadoc:note></desc><g transform="matrix(1 0 0 -1 0 841)"><g stroke="#000000" fill="none" fill-rule="evenodd" stroke-width="1" stroke-linecap="round" stroke-linejoin="round" stroke-miterlimit="3" letter-spacing="normal" font-weight="normal" font-style="normal" baseline-shift="0"><g transform="matrix(0.75 0 0 0.75 0 841.650024)"><g transform="matrix(0.958888 0 0 -0.959795 0 0)" font-family="Arial" font-size="10"><path d="M239 48V668m0 0H843m0 0V48m0 0H239" /><text transform="matrix(1 0 0 1 524 52)" fill="#000000" stroke="none"><tspan x="0" y="9">System</tspan></text><text transform="matrix(1 0 0 1 524 52)" fill="#000000" stroke="none"><tspan x="0" y="9">System</tspan></text><path fill="#C0BFC0" stroke="none" d="M91 188C91 181.37 96.37 176 103 176C109.63 176 115 181.37 115 188C115 194.63 109.63 200 103 200C96.37 200 91 194.63 91 188" /><path fill="#FCF2E3" stroke="none" d="M90 185.5C90 179.15 95.15 174 101.5 174C107.85 174 113 179.15 113 185.5C113 191.85 107.85 197 101.5 197C95.15 197 90 191.85 90 185.5" /><path d="M90 185.5C90 179.15 95.15 174 101.5 174C107.85 174 113 179.15 113 185.5C113 191.85 107.85 197 101.5 197C95.15 197 90 191.85 90 185.5M102 198v24M84 204h18m18 0H102m0 18l15 25" /><path d="M102 222L87 247" /><text transform="matrix(1 0 0 1 78 247)" fill="#000000" font-weight="bold" stroke="none"><desc xmlns:eadoc="http://www.siemens.com/eauml/doc"><eadoc:guid>EAID_E258A278_5AE9_4dad_9852_18FEC84A7626</eadoc:guid><eadoc:name>Organizer</eadoc:name><eadoc:type>Actor</eadoc:type></desc><tspan x="0" y="9">Organizer</tspan></text><path fill="#C0BFC0" stroke="none" d="M529 512.5C529 489.03 557.65 470 593 470C628.35 470 657 489.03 657 512.5C657 535.97 628.35 555 593 555C557.65 555 529 535.97 529 512.5" /><path fill="#FCF2E3" stroke="none" d="M527 510.5C527 487.03 555.65 468 591 468C626.35 468 655 487.03 655 510.5C655 533.97 626.35 553 591 553C555.65 553 527 533.97 527 510.5" /><path d="M527 510.5C527 487.03 555.65 468 591 468C626.35 468 655 487.03 655 510.5C655 533.97 626.35 553 591 553C555.65 553 527 533.97 527 510.5" /><text transform="matrix(1 0 0 1 538 505)" fill="#000000" font-weight="bold" stroke="none"><desc xmlns:eadoc="http://www.siemens.com/eauml/doc"><eadoc:guid>EAID_AA79D097_20ED_4ed9_9968_4783B9CB4A15</eadoc:guid><eadoc:name>Create new campaign</eadoc:name><eadoc:type>UseCase</eadoc:type></desc><tspan x="0" y="9">Create new campaign</tspan></text><path fill="#C0BFC0" stroke="none" d="M309 222.5C309 203.45 332.28 188 361 188C389.72 188 413 203.45 413 222.5C413 241.55 389.72 257 361 257C332.28 257 309 241.55 309 222.5" /><path fill="#FCF2E3" stroke="none" d="M307 220.5C307 201.45 330.28 186 359 186C387.72 186 411 201.45 411 220.5C411 239.55 387.72 255 359 255C330.28 255 307 239.55 307 220.5" /><path d="M307 220.5C307 201.45 330.28 186 359 186C387.72 186 411 201.45 411 220.5C411 239.55 387.72 255 359 255C330.28 255 307 239.55 307 220.5" /><text transform="matrix(1 0 0 1 319 209)" fill="#000000" font-weight="bold" stroke="none"><desc xmlns:eadoc="http://www.siemens.com/eauml/doc"><eadoc:guid>EAID_351D5B8C_B9B9_4d5f_8303_C27DDBAD63BA</eadoc:guid><eadoc:name>Display and edit campaigns</eadoc:name><eadoc:type>UseCase</eadoc:type></desc><tspan x="0" y="9">Display and edit </tspan><tspan x="13" y="21">campaigns</tspan></text><path fill="#C0BFC0" stroke="none" d="M541 378.5C541 359.45 564.28 344 593 344C621.72 344 645 359.45 645 378.5C645 397.55 621.72 413 593 413C564.28 413 541 397.55 541 378.5" /><path fill="#FCF2E3" stroke="none" d="M539 376.5C539 357.45 562.28 342 591 342C619.72 342 643 357.45 643 376.5C643 395.55 619.72 411 591 411C562.28 411 539 395.55 539 376.5" /><path d="M539 376.5C539 357.45 562.28 342 591 342C619.72 342 643 357.45 643 376.5C643 395.55 619.72 411 591 411C562.28 411 539 395.55 539 376.5" /><text transform="matrix(1 0 0 1 556 371)" fill="#000000" font-weight="bold" stroke="none"><desc xmlns:eadoc="http://www.siemens.com/eauml/doc"><eadoc:guid>EAID_13C1A178_28DE_4a54_9712_39CC14D11075</eadoc:guid><eadoc:name>Edit campaign</eadoc:name><eadoc:type>UseCase</eadoc:type></desc><tspan x="0" y="9">Edit campaign</tspan></text><path fill="#C0BFC0" stroke="none" d="M544 136C544 118.33 565.49 104 592 104C618.51 104 640 118.33 640 136C640 153.67 618.51 168 592 168C565.49 168 544 153.67 544 136" /><path fill="#FCF2E3" stroke="none" d="M542 134C542 116.33 563.49 102 590 102C616.51 102 638 116.33 638 134C638 151.67 616.51 166 590 166C563.49 166 542 151.67 542 134" /><path d="M542 134C542 116.33 563.49 102 590 102C616.51 102 638 116.33 638 134C638 151.67 616.51 166 590 166C563.49 166 542 151.67 542 134" /><text transform="matrix(1 0 0 1 546 128)" fill="#000000" font-weight="bold" stroke="none"><desc xmlns:eadoc="http://www.siemens.com/eauml/doc"><eadoc:guid>EAID_D399372D_5187_4fd0_9E35_A5C882ECDCE3</eadoc:guid><eadoc:name>Edit donation form</eadoc:name><eadoc:type>UseCase</eadoc:type></desc><tspan x="0" y="9">Edit donation form</tspan></text><path fill="#C0BFC0" stroke="none" d="M540 212.5C540 193.45 563.28 178 592 178C620.72 178 644 193.45 644 212.5C644 231.55 620.72 247 592 247C563.28 247 540 231.55 540 212.5" /><path fill="#FCF2E3" stroke="none" d="M538 210.5C538 191.45 561.28 176 590 176C618.72 176 642 191.45 642 210.5C642 229.55 618.72 245 590 245C561.28 245 538 229.55 538 210.5" /><path d="M538 210.5C538 191.45 561.28 176 590 176C618.72 176 642 191.45 642 210.5C642 229.55 618.72 245 590 245C561.28 245 538 229.55 538 210.5" /><text transform="matrix(1 0 0 1 548 205)" fill="#000000" font-weight="bold" stroke="none"><desc xmlns:eadoc="http://www.siemens.com/eauml/doc"><eadoc:guid>EAID_3465CFE6_829D_4f7b_BC8F_CE23A010EB02</eadoc:guid><eadoc:name>Display donor list</eadoc:name><eadoc:type>UseCase</eadoc:type></desc><tspan x="0" y="9">Display donor list</tspan></text><path fill="#C0BFC0" stroke="none" d="M90 534.5C90 528.7 94.7 524 100.5 524C106.3 524 111 528.7 111 534.5C111 540.3 106.3 545 100.5 545C94.7 545 90 540.3 90 534.5" /><path fill="#FCF2E3" stroke="none" d="M88 532.5C88 526.7 92.7 522 98.5 522C104.3 522 109 526.7 109 532.5C109 538.3 104.3 543 98.5 543C92.7 543 88 538.3 88 532.5" /><path d="M88 532.5C88 526.7 92.7 522 98.5 522C104.3 522 109 526.7 109 532.5C109 538.3 104.3 543 98.5 543C92.7 543 88 538.3 88 532.5M99 544v21M84 549H99m15 0H99m0 16l12 21" /><path d="M99 565L87 586" /><text transform="matrix(1 0 0 1 85 586)" fill="#000000" font-weight="bold" stroke="none"><desc xmlns:eadoc="http://www.siemens.com/eauml/doc"><eadoc:guid>EAID_DBC0F850_EC66_42b2_98EB_002E457779F0</eadoc:guid><eadoc:name>Donor</eadoc:name><eadoc:type>Actor</eadoc:type></desc><tspan x="0" y="9">Donor</tspan></text><path fill="#C0BFC0" stroke="none" d="M320 513.5C320 494.45 343.28 479 372 479C400.72 479 424 494.45 424 513.5C424 532.55 400.72 548 372 548C343.28 548 320 532.55 320 513.5" /><path fill="#FCF2E3" stroke="none" d="M318 511.5C318 492.45 341.28 477 370 477C398.72 477 422 492.45 422 511.5C422 530.55 398.72 546 370 546C341.28 546 318 530.55 318 511.5" /><path d="M318 511.5C318 492.45 341.28 477 370 477C398.72 477 422 492.45 422 511.5C422 530.55 398.72 546 370 546C341.28 546 318 530.55 318 511.5" /><text transform="matrix(1 0 0 1 336 506)" fill="#000000" font-weight="bold" stroke="none"><desc xmlns:eadoc="http://www.siemens.com/eauml/doc"><eadoc:guid>EAID_24091F35_D633_4273_8FA0_8CC6CF796760</eadoc:guid><eadoc:name>Donate money</eadoc:name><eadoc:type>UseCase</eadoc:type></desc><tspan x="0" y="9">Donate money</tspan></text><path fill="#C0BFC0" stroke="none" d="M729 179.5C729 160.45 752.28 145 781 145C809.72 145 833 160.45 833 179.5C833 198.55 809.72 214 781 214C752.28 214 729 198.55 729 179.5" /><path fill="#FCF2E3" stroke="none" d="M727 177.5C727 158.45 750.28 143 779 143C807.72 143 831 158.45 831 177.5C831 196.55 807.72 212 779 212C750.28 212 727 196.55 727 177.5" /><path d="M727 177.5C727 158.45 750.28 143 779 143C807.72 143 831 158.45 831 177.5C831 196.55 807.72 212 779 212C750.28 212 727 196.55 727 177.5" /><text transform="matrix(1 0 0 1 732 172)" fill="#000000" font-weight="bold" stroke="none"><desc xmlns:eadoc="http://www.siemens.com/eauml/doc"><eadoc:guid>EAID_CBE0D74D_90FD_4fbb_A8D3_4CC000BE3DE4</eadoc:guid><eadoc:name>Edit campaign data</eadoc:name><eadoc:type>UseCase</eadoc:type></desc><tspan x="0" y="9">Edit campaign data</tspan></text><path fill="#C0BFC0" stroke="none" d="M540 293.5C540 274.45 563.28 259 592 259C620.72 259 644 274.45 644 293.5C644 312.55 620.72 328 592 328C563.28 328 540 312.55 540 293.5" /><path fill="#FCF2E3" stroke="none" d="M538 291.5C538 272.45 561.28 257 590 257C618.72 257 642 272.45 642 291.5C642 310.55 618.72 326 590 326C561.28 326 538 310.55 538 291.5" /><path d="M538 291.5C538 272.45 561.28 257 590 257C618.72 257 642 272.45 642 291.5C642 310.55 618.72 326 590 326C561.28 326 538 310.55 538 291.5" /><text transform="matrix(1 0 0 1 549 286)" fill="#000000" font-weight="bold" stroke="none"><desc xmlns:eadoc="http://www.siemens.com/eauml/doc"><eadoc:guid>EAID_EFCF0F2A_E45A_4230_B48E_58C1EC7629CA</eadoc:guid><eadoc:name>Delete campaign</eadoc:name><eadoc:type>UseCase</eadoc:type></desc><tspan x="0" y="9">Delete campaign</tspan></text><path fill="#C0BFC0" stroke="none" d="M320 617.5C320 596.24 345.97 579 378 579C410.03 579 436 596.24 436 617.5C436 638.76 410.03 656 378 656C345.97 656 320 638.76 320 617.5" /><path fill="#FCF2E3" stroke="none" d="M318 615.5C318 594.24 343.97 577 376 577C408.03 577 434 594.24 434 615.5C434 636.76 408.03 654 376 654C343.97 654 318 636.76 318 615.5" /><path d="M318 615.5C318 594.24 343.97 577 376 577C408.03 577 434 594.24 434 615.5C434 636.76 408.03 654 376 654C343.97 654 318 636.76 318 615.5" /><text transform="matrix(1 0 0 1 323 604)" fill="#000000" font-weight="bold" stroke="none"><desc xmlns:eadoc="http://www.siemens.com/eauml/doc"><eadoc:guid>EAID_6FD2133C_2462_4fb6_9737_801E6B8BA2FE</eadoc:guid><eadoc:name>Display filtered donor list</eadoc:name><eadoc:type>UseCase</eadoc:type></desc><tspan x="0" y="9">Display filtered donor </tspan><tspan x="46" y="21">list</tspan></text><path d="M119 561l199 42" /><path d="M412 237l7 2m4 1l7 2m4 1l7 2m4 2l7 2m4 1l7 2m4 2l7 2m4 1l7 2m4 1l7 3m4 1l7 2m4 1l7 2m4 2l7 2m4 1l5 2" /><path d="M412 237l16 -1m-16 1l13 10" /><g transform="matrix(1 0 0 -1 453 260)"><rect fill="#FFFFFF" stroke="none" x="0" width="46" y="-11" height="11" /></g><text transform="matrix(1 0 0 1 453 260)" fill="#000000" stroke="none"><tspan x="0" y="9">«extend»</tspan></text><path d="M124 226L527 471" /><path d="M782 213l-4 7m-2 4l-5 7m-2 4l-4 7m-3 4l-4 7m-3 4l-4 7m-2 4l-5 7m-2 4l-4 7m-3 4l-4 7m-3 4l-4 7m-2 4l-5 7m-2 4l-5 7m-2 4l-4 7m-3 4l-4 7m-3 4l-4 7m-2 4l-5 7m-2 4l-4 7m-3 4l-4 7m-3 4l-4 7m-2 4l-5 7m-2 4l-4 7m-3 4l-4 7m-3 4l-4 7m-2 4l-5 7m-2 4l-2 2" /><path d="M782 213l-3 16m3 -16l-13 10" /><g transform="matrix(1 0 0 -1 681 344)"><rect fill="#FFFFFF" stroke="none" x="0" width="49" y="-11" height="11" /></g><text transform="matrix(1 0 0 1 681 344)" fill="#000000" stroke="none"><tspan x="0" y="9">«include»</tspan></text><path d="M745 213l-6 7m-4 4l-6 7m-4 4l-7 7m-3 4l-7 7m-4 4l-6 7m-4 4l-7 7m-3 4l-7 7m-4 4l-6 7m-4 4l-7 7m-3 4l-7 7m-4 4l-6 7m-4 4l-7 7" /><path d="M745 213l-6 15m6 -15l-15 7" /><g transform="matrix(1 0 0 -1 662 281)"><rect fill="#FFFFFF" stroke="none" x="0" width="49" y="-11" height="11" /></g><text transform="matrix(1 0 0 1 662 281)" fill="#000000" stroke="none"><tspan x="0" y="9">«include»</tspan></text><path stroke-dasharray="7,4" d="M412 218L430 218" /><path d="M434 218l7 -1m4 0h7m4 0l7 -1m4 0h7m4 0h7m4 -1h7m4 0h7m4 0l7 -1m4 0h7m4 0l5 -1" /><path d="M412 218l15 -7m-15 7l15 5" /><g transform="matrix(1 0 0 -1 453 219)"><rect fill="#FFFFFF" stroke="none" x="0" width="46" y="-11" height="11" /></g><text transform="matrix(1 0 0 1 453 219)" fill="#000000" stroke="none"><tspan x="0" y="9">«extend»</tspan></text><path d="M412 201l7 -2m4 -2l7 -2m4 -2l7 -2m4 -2l7 -3m4 -1l7 -3m4 -1l7 -3m4 -1l7 -3m4 -2l7 -2m4 -2l7 -2m4 -2l7 -2m4 -2l7 -3m4 -1l7 -3" /><path d="M412 201l12 -11m-12 11h16" /><g transform="matrix(1 0 0 -1 455 180)"><rect fill="#FFFFFF" stroke="none" x="0" width="46" y="-11" height="11" /></g><text transform="matrix(1 0 0 1 455 180)" fill="#000000" stroke="none"><tspan x="0" y="9">«extend»</tspan></text><path d="M411 256l7 4m4 3l7 5m4 2l7 5m4 3l7 4m4 3l7 5m4 2l7 5m4 3l7 5m4 2l7 5m4 3l7 4m4 3l7 5m4 2l7 5m4 3l7 5" /><path d="M411 256l16 3m-16 -3l9 13" /><g transform="matrix(1 0 0 -1 453 302)"><rect fill="#FFFFFF" stroke="none" x="0" width="46" y="-11" height="11" /></g><text transform="matrix(1 0 0 1 453 302)" fill="#000000" stroke="none"><tspan x="0" y="9">«extend»</tspan></text><path d="M119 553L318 520" /><path d="M124 213l183 6" /></g></g></g></g></svg>