<?xml version="1.0" encoding="utf-8"?><svg version="1.1" preserveAspectRatio="xMidYMid" xml:space="preserve" width="910.00351pt" height="285.1218pt" viewBox="36.59229 78.6188 910.00351 285.1218" xmlns="http://www.w3.org/2000/svg" xmlns:xlink="http://www.w3.org/1999/xlink"><desc xmlns:eadoc="http://www.siemens.com/eauml/doc"><eadoc:guid>EAID_2C608A3D_20E3_43e0_99B7_8CD95E945C38</eadoc:guid><eadoc:name>Use Case "Edit campaign data"</eadoc:name><eadoc:type>Diagram</eadoc:type><eadoc:note></eadoc:note></desc><g transform="matrix(1 0 0 -1 0 816)"><g stroke="#000000" fill="none" fill-rule="evenodd" stroke-width="1" stroke-linecap="round" stroke-linejoin="round" stroke-miterlimit="3" letter-spacing="normal" font-weight="normal" font-style="normal" baseline-shift="0"><g transform="matrix(0.75 0 0 0.75 0 816.450012)"><g transform="matrix(0.958974 0 0 -0.959436 0 0)" font-family="Arial" font-size="10"><path fill="#FCF2E3" stroke="none" d="M100 407.5C100 399.49 106.49 393 114.5 393C122.51 393 129 399.49 129 407.5C129 415.51 122.51 422 114.5 422C106.49 422 100 415.51 100 407.5" /><path d="M100 407.5C100 399.49 106.49 393 114.5 393C122.51 393 129 399.49 129 407.5C129 415.51 122.51 422 114.5 422C106.49 422 100 415.51 100 407.5" /><text transform="matrix(1 0 0 1 105 425)" fill="#000000" stroke="none"><tspan x="0" y="9">Start</tspan></text><rect fill="#FCF2E2" stroke="none" x="62" y="121" width="1242" height="190" /><rect x="62" y="121" width="1242" height="190" /><g transform="matrix(-1 0 0 1 65 256)" font-family="Arial" font-size="10"><text transform="matrix(0 -1 -1 0 0 0)" fill="#000000" font-weight="bold" stroke="none"><tspan x="0" y="9">«Pool» Organizer</tspan></text></g><path stroke="#B4B4B4" stroke-width="2" d="M62 121V312m0 0H1305" /><path stroke="#B4B4B4" stroke-width="2" d="M1305 121H62m20 0V312" /><path d="M62 121V312m0 0H1305" /><path d="M1305 121H62m20 0V312" /><g transform="matrix(-1 0 0 1 65 438)" font-family="Arial" font-size="10"><text transform="matrix(0 -1 -1 0 0 0)" fill="#000000" font-weight="bold" stroke="none"><tspan x="0" y="9">«Pool» System</tspan></text></g><path stroke="#B4B4B4" stroke-width="2" d="M62 312V495m0 0H1305" /><path stroke="#B4B4B4" stroke-width="2" d="M1305 312H62m20 0V495" /><path d="M62 312V495m0 0H1305" /><path d="M1305 312H62m20 0V495" /><path stroke="#C0BFC0" fill="#C0BFC0" d="M541 213C541 216 539 218 536 218H370C367 218 365 216 365 213V142C365 139 367 137 370 137H536C539 137 541 139 541 142 Z Z" /><path fill="#FCF2E3" d="M538 210C538 213 536 215 533 215H367C364 215 362 213 362 210V139C362 136 364 134 367 134H533C536 134 538 136 538 139 Z Z" /><text transform="matrix(1 0 0 1 384 151)" fill="#000000" stroke="none"><desc xmlns:eadoc="http://www.siemens.com/eauml/doc"><eadoc:guid>EAID_76FCAFD7_E2E7_486a_B056_335B6E78B504</eadoc:guid><eadoc:name>Edit general campaign data</eadoc:name><eadoc:type>Activity</eadoc:type></desc><tspan x="0" y="9">Edit general campaign data</tspan></text><path stroke="#C0BFC0" fill="#C0BFC0" d="M511 294C511 297 509 299 506 299H395C392 299 390 297 390 294V237C390 234 392 232 395 232H506C509 232 511 234 511 237 Z Z" /><path fill="#FCF2E3" d="M508 291C508 294 506 296 503 296H392C389 296 387 294 387 291V234C387 231 389 229 392 229H503C506 229 508 231 508 234 Z Z" /><text transform="matrix(1 0 0 1 409 246)" fill="#000000" stroke="none"><desc xmlns:eadoc="http://www.siemens.com/eauml/doc"><eadoc:guid>EAID_1A9268E4_0BE4_4cf3_AC98_252AAF56C22C</eadoc:guid><eadoc:name>Edit bank details</eadoc:name><eadoc:type>Activity</eadoc:type></desc><tspan x="0" y="9">Edit bank details</tspan></text><path fill="#FCF2E3" d="M690 392l21 -21l21 21l-21 21L690 392 Z" /><text transform="matrix(1 0 0 1 672 421)" fill="#000000" stroke="none"><tspan x="0" y="9">Which button?</tspan></text><path stroke="#C0BFC0" fill="#C0BFC0" d="M968 419C968 422 966 424 963 424H864C861 424 859 422 859 419V370C859 367 861 365 864 365h99C966 365 968 367 968 370 Z Z" /><path fill="#FCF2E3" d="M965 416C965 419 963 421 960 421H861C858 421 856 419 856 416V367C856 364 858 362 861 362h99C963 362 965 364 965 367 Z Z" /><text transform="matrix(1 0 0 1 885 379)" fill="#000000" stroke="none"><desc xmlns:eadoc="http://www.siemens.com/eauml/doc"><eadoc:guid>EAID_22325B63_AD68_44cb_BC2C_CEC095B9214D</eadoc:guid><eadoc:name>Check data</eadoc:name><eadoc:type>Activity</eadoc:type></desc><tspan x="0" y="9">Check data</tspan></text><path fill="#FCF2E3" stroke-width="3" d="M849 437C849 446 843 452 834 452C826 452 820 446 820 437C820 429 826 423 835 423C843 423 849 429 849 437 Z Z" /><path fill="#000000" d="M827 433l3 -3l5 6l5 -6l3 3l-6 5l6 5l-3 3l-5 -6l-5 6l-3 -3l6 -5l-6 -5 Z" /><text transform="matrix(1 0 0 1 818 455)" fill="#000000" stroke="none"><tspan x="0" y="9">Cancel</tspan></text><path fill="#FCF2E3" d="M1018 392l21 -21l21 21l-21 21l-21 -21 Z" /><text transform="matrix(1 0 0 1 999 423)" fill="#000000" stroke="none"><tspan x="0" y="9">Data complete?</tspan></text><path stroke="#C0BFC0" fill="#C0BFC0" d="M1216 389C1216 392 1214 394 1211 394h-90C1118 394 1116 392 1116 389V340C1116 337 1118 335 1121 335h90C1214 335 1216 337 1216 340 Z Z" /><path fill="#FCF2E3" d="M1213 386C1213 389 1211 391 1208 391h-90C1115 391 1113 389 1113 386V337C1113 334 1115 332 1118 332h90C1211 332 1213 334 1213 337 Z Z" /><text transform="matrix(1 0 0 1 1126 349)" fill="#000000" stroke="none"><tspan x="0" y="9">Send campaign</tspan></text><text transform="matrix(1 0 0 1 1153 363)" fill="#000000" stroke="none"><tspan x="0" y="9">data</tspan></text><path stroke="#C0BFC0" fill="#C0BFC0" d="M1247 476C1247 479 1245 481 1242 481H1121C1118 481 1116 479 1116 476V423C1116 420 1118 418 1121 418h121C1245 418 1247 420 1247 423 Z Z" /><path fill="#FCF2E3" d="M1244 473C1244 476 1242 478 1239 478H1118C1115 478 1113 476 1113 473V420C1113 417 1115 415 1118 415h121C1242 415 1244 417 1244 420 Z Z" /><text transform="matrix(1 0 0 1 1126 432)" fill="#000000" stroke="none"><desc xmlns:eadoc="http://www.siemens.com/eauml/doc"><eadoc:guid>EAID_A850408A_0C1B_4674_9BF4_8D65BD967B56</eadoc:guid><eadoc:name>Display error messages</eadoc:name><eadoc:type>Activity</eadoc:type></desc><tspan x="0" y="9">Display error messages</tspan></text><path fill="#FCF2E3" stroke-width="3" d="M1269 357C1269 365 1263 371 1254 371C1246 371 1240 365 1240 356C1240 348 1246 342 1255 342C1263 342 1269 348 1269 357 Z Z" /><path fill="#000000" d="M1262 357C1262 361 1259 364 1254 364C1250 364 1247 361 1247 356C1247 352 1250 349 1255 349C1259 349 1262 352 1262 357 Z Z" /><text transform="matrix(1 0 0 1 1242 374)" fill="#000000" stroke="none"><tspan x="0" y="9">End</tspan></text><path stroke="#C0BFC0" fill="#C0BFC0" d="M293 440C293 443 291 445 288 445H179C176 445 174 443 174 440V391C174 388 176 386 179 386H288C291 386 293 388 293 391 Z Z" /><path fill="#FCF2E3" d="M290 437C290 440 288 442 285 442H176C173 442 171 440 171 437V388C171 385 173 383 176 383H285C288 383 290 385 290 388 Z Z" /><text transform="matrix(1 0 0 1 184 400)" fill="#000000" stroke="none"><tspan x="0" y="9">Display screen "Edit</tspan></text><text transform="matrix(1 0 0 1 193 414)" fill="#000000" stroke="none"><tspan x="0" y="9">campaign data"</tspan></text><path fill="#FCF2E3" d="M285 217l21 -21l21 21l-21 21L285 217 Z" /><path fill="#FCF2E3" stroke-width="3" stroke="none" d="M296 216C296 210.48 300.48 206 306 206C311.52 206 316 210.48 316 216C316 221.52 311.52 226 306 226C300.48 226 296 221.52 296 216" /><path stroke-width="3" d="M296 216C296 210.48 300.48 206 306 206C311.52 206 316 210.48 316 216C316 221.52 311.52 226 306 226C300.48 226 296 221.52 296 216" /><path fill="#FCF2E3" d="M583 214l21 -21l21 21l-21 21L583 214 Z" /><path fill="#FCF2E3" stroke-width="3" stroke="none" d="M594 213C594 207.48 598.48 203 604 203C609.52 203 614 207.48 614 213C614 218.52 609.52 223 604 223C598.48 223 594 218.52 594 213" /><path stroke-width="3" d="M594 213C594 207.48 598.48 203 604 203C609.52 203 614 207.48 614 213C614 218.52 609.52 223 604 223C598.48 223 594 218.52 594 213" /><path stroke="#C0BFC0" fill="#C0BFC0" d="M770 242C770 245 768 247 765 247H666C663 247 661 245 661 242V193C661 190 663 188 666 188h99C768 188 770 190 770 193 Z Z" /><path fill="#FCF2E3" d="M767 239C767 242 765 244 762 244H663C660 244 658 242 658 239V190C658 187 660 185 663 185h99C765 185 767 187 767 190 Z Z" /><text transform="matrix(1 0 0 1 685 202)" fill="#000000" stroke="none"><desc xmlns:eadoc="http://www.siemens.com/eauml/doc"><eadoc:guid>EAID_38572203_2F19_4e0c_9A92_B50F39EDCDA4</eadoc:guid><eadoc:name>Click button</eadoc:name><eadoc:type>Activity</eadoc:type></desc><tspan x="0" y="9">Click button</tspan></text><path d="M711 413v21m0 0C711 437 714 440 717 440M717 440H820" /><path fill="#000000" d="M820 440l-16 -6v12 Z" /><g transform="matrix(1 0 0 -1 749 444)"><rect fill="#FFFFFF" stroke="none" x="0" width="39" y="-11" height="11" /></g><text transform="matrix(1 0 0 1 749 444)" fill="#000000" stroke="none"><tspan x="0" y="9">'Cancel'</tspan></text><path d="M732 392H856" /><path fill="#000000" d="M856 392l-16 -6v12 Z" /><g transform="matrix(1 0 0 -1 790 374)"><rect fill="#FFFFFF" stroke="none" x="0" width="29" y="-11" height="11" /></g><text transform="matrix(1 0 0 1 790 374)" fill="#000000" stroke="none"><tspan x="0" y="9">'Save'</tspan></text><path d="M712 245V371" /><path fill="#000000" d="M712 371l6 -16H706 Z" /><path d="M625 214h33" /><path fill="#000000" d="M658 214l-16 -6v12 Z" /><path d="M509 269h89m0 0C601 269 604 266 604 263M604 263V235" /><path fill="#000000" d="M604 235l-6 16h12 Z" /><path d="M306 196V169m0 0C306 166 309 163 312 163M312 163h50" /><path fill="#000000" d="M362 163l-16 -6v12 Z" /><path d="M244 383V223m0 0C244 220 247 217 250 217M250 217h35" /><path fill="#000000" d="M285 217l-16 -6v12 Z" /><path d="M1113 472H312m0 0C309 472 306 469 306 466M306 466V238" /><path fill="#000000" d="M306 238l-6 16h12 Z" /><path d="M539 143h59m0 0C601 143 604 146 604 149M604 149v44" /><path fill="#000000" d="M604 193l6 -16H598 Z" /><path d="M327 217h11m0 0C341 217 344 220 344 223M344 223v37m0 0C344 263 347 266 350 266M350 266h37" /><path fill="#000000" d="M387 266l-16 -6v12 Z" /><path d="M1214 359h26" /><path fill="#000000" d="M1240 359l-16 -6v12 Z" /><path d="M1039 413v37m0 0C1039 453 1042 456 1045 456M1045 456h68" /><path fill="#000000" d="M1113 456l-16 -6v12 Z" /><g transform="matrix(1 0 0 -1 1098 438)"><rect fill="#FFFFFF" stroke="none" x="0" width="13" y="-11" height="11" /></g><text transform="matrix(1 0 0 1 1098 438)" fill="#000000" stroke="none"><tspan x="0" y="9">no</tspan></text><path d="M1039 371V359m0 0C1039 356 1042 353 1045 353M1045 353h68" /><path fill="#000000" d="M1113 353l-16 -6v12 Z" /><g transform="matrix(1 0 0 -1 1062 337)"><rect fill="#FFFFFF" stroke="none" x="0" width="16" y="-11" height="11" /></g><text transform="matrix(1 0 0 1 1062 337)" fill="#000000" stroke="none"><tspan x="0" y="9">yes</tspan></text><path d="M130 408h41" /><path fill="#000000" d="M171 408l-16 -6v12 Z" /><path d="M966 392h52" /><path fill="#000000" d="M1018 392l-16 -6v12 Z" /></g></g></g></g></svg>