<?xml version="1.0" encoding="utf-8"?><svg version="1.1" preserveAspectRatio="xMidYMid" xml:space="preserve" width="738.8266560000001pt" height="258.49742pt" viewBox="-2.246156 57.75108 738.8266560000001 258.49742" xmlns="http://www.w3.org/2000/svg" xmlns:xlink="http://www.w3.org/1999/xlink"><desc xmlns:eadoc="http://www.siemens.com/eauml/doc"><eadoc:guid>EAID_B816EAF9_A872_4c6f_94EF_AE9E4B21EDA7</eadoc:guid><eadoc:name>Use Case "Display and edit campaigns"</eadoc:name><eadoc:type>Diagram</eadoc:type><eadoc:note></eadoc:note></desc><g transform="matrix(1 0 0 -1 0 816)"><g stroke="#000000" fill="none" fill-rule="evenodd" stroke-width="1" stroke-linecap="round" stroke-linejoin="round" stroke-miterlimit="3" letter-spacing="normal" font-weight="normal" font-style="normal" baseline-shift="0"><g transform="matrix(0.75 0 0 0.75 0 816.450012)"><g transform="matrix(0.958974 0 0 -0.959436 0 0)" font-family="Arial" font-size="10"><path fill="#FCF2E3" stroke="none" d="M8 223.5C8 215.49 14.49 209 22.5 209C30.51 209 37 215.49 37 223.5C37 231.51 30.51 238 22.5 238C14.49 238 8 231.51 8 223.5" /><path d="M8 223.5C8 215.49 14.49 209 22.5 209C30.51 209 37 215.49 37 223.5C37 231.51 30.51 238 22.5 238C14.49 238 8 231.51 8 223.5" /><text transform="matrix(1 0 0 1 10 241)" fill="#000000" stroke="none"><tspan x="0" y="9">Start</tspan></text><path stroke="#C0BFC0" fill="#C0BFC0" d="M351 251C351 254 349 256 346 256H235C232 256 230 254 230 251V202C230 199 232 197 235 197H346C349 197 351 199 351 202 Z Z" /><path fill="#FCF2E3" d="M348 248C348 251 346 253 343 253H232C229 253 227 251 227 248V199C227 196 229 194 232 194H343C346 194 348 196 348 199 Z Z" /><text transform="matrix(1 0 0 1 238 211)" fill="#000000" stroke="none"><tspan x="0" y="9">Assemble screen "My</tspan></text><text transform="matrix(1 0 0 1 259 225)" fill="#000000" stroke="none"><tspan x="0" y="9">Campaigns"</tspan></text><path fill="#FCF2E3" stroke="none" d="M553 223.5C553 215.49 559.49 209 567.5 209C575.51 209 582 215.49 582 223.5C582 231.51 575.51 238 567.5 238C559.49 238 553 231.51 553 223.5" /><path d="M553 223.5C553 215.49 559.49 209 567.5 209C575.51 209 582 215.49 582 223.5C582 231.51 575.51 238 567.5 238C559.49 238 553 231.51 553 223.5" /><path fill="#FCF2E3" stroke="none" d="M556 223.5C556 217.15 561.15 212 567.5 212C573.85 212 579 217.15 579 223.5C579 229.85 573.85 235 567.5 235C561.15 235 556 229.85 556 223.5" /><path d="M556 223.5C556 217.15 561.15 212 567.5 212C573.85 212 579 217.15 579 223.5C579 229.85 573.85 235 567.5 235C561.15 235 556 229.85 556 223.5" /><path fill="#FCF2E3" d="M568 215l-8 13h16 Z" /><text transform="matrix(1 0 0 1 514 241)" fill="#000000" stroke="none"><tspan x="0" y="9">Wait for user action</tspan></text><path fill="#FCF2E3" d="M659 224l21 -21l21 21l-21 21L659 224 Z" /><text transform="matrix(1 0 0 1 637 252)" fill="#000000" stroke="none"><tspan x="0" y="9">Start which Use Case?</tspan></text><path stroke="#C0BFC0" fill="#C0BFC0" d="M901 248C901 251 899 253 896 253H766C763 253 761 251 761 248V193C761 190 763 188 766 188H896C899 188 901 190 901 193 Z Z" /><path fill="#FCF2E3" d="M898 245C898 248 896 250 893 250H763C760 250 758 248 758 245V190C758 187 760 185 763 185H893C896 185 898 187 898 190 Z Z" /><rect fill="#FCF2E3" x="821" y="233" width="15" height="15" /><path d="M823 241h6m5 0h-5m0 -5v5m0 5v-5" /><text transform="matrix(1 0 0 1 767 202)" fill="#000000" stroke="none"><desc xmlns:eadoc="http://www.siemens.com/eauml/doc"><eadoc:guid>EAID_8F8093CC_A16F_423f_A841_89C773B6BA9C</eadoc:guid><eadoc:name>Use Case "Edit campaign"</eadoc:name><eadoc:type>Activity</eadoc:type></desc><tspan x="0" y="9">Use Case "Edit campaign"</tspan></text><path stroke="#C0BFC0" fill="#C0BFC0" d="M901 341C901 344 899 346 896 346H766C763 346 761 344 761 341V286C761 283 763 281 766 281H896C899 281 901 283 901 286 Z Z" /><path fill="#FCF2E3" d="M898 338C898 341 896 343 893 343H763C760 343 758 341 758 338V283C758 280 760 278 763 278H893C896 278 898 280 898 283 Z Z" /><rect fill="#FCF2E3" x="821" y="326" width="15" height="15" /><path d="M823 334h6m5 0h-5m0 -5v5m0 5v-5" /><text transform="matrix(1 0 0 1 771 295)" fill="#000000" stroke="none"><tspan x="0" y="9">Use Case "Display donor</tspan></text><text transform="matrix(1 0 0 1 819 309)" fill="#000000" stroke="none"><tspan x="0" y="9">list"</tspan></text><path stroke="#C0BFC0" fill="#C0BFC0" d="M901 160C901 163 899 165 896 165H766C763 165 761 163 761 160V100C761 97 763 95 766 95H896C899 95 901 97 901 100 Z Z" /><path fill="#FCF2E3" d="M898 157C898 160 896 162 893 162H763C760 162 758 160 758 157V97C758 94 760 92 763 92H893C896 92 898 94 898 97 Z Z" /><rect fill="#FCF2E3" x="821" y="145" width="15" height="15" /><path d="M823 153h6m5 0h-5m0 -5v5m0 5v-5" /><text transform="matrix(1 0 0 1 771 109)" fill="#000000" stroke="none"><tspan x="0" y="9">Use Case "Edit donation</tspan></text><text transform="matrix(1 0 0 1 815 123)" fill="#000000" stroke="none"><tspan x="0" y="9">form"</tspan></text><path fill="#FCF2E3" stroke-width="3" d="M985 223C985 231 979 237 970 237C962 237 956 231 956 222C956 214 962 208 971 208C979 208 985 214 985 223 Z Z" /><path fill="#000000" d="M978 223C978 227 975 230 971 230C966 230 963 227 963 222C963 218 966 215 971 215C975 215 978 218 978 223 Z Z" /><text transform="matrix(1 0 0 1 994 216)" fill="#000000" stroke="none"><tspan x="0" y="9">End</tspan></text><path stroke="#C0BFC0" fill="#C0BFC0" d="M194 251C194 254 192 256 189 256H84C81 256 79 254 79 251V202C79 199 81 197 84 197H189C192 197 194 199 194 202 Z Z" /><path fill="#FCF2E3" d="M191 248C191 251 189 253 186 253H81C78 253 76 251 76 248V199C76 196 78 194 81 194H186C189 194 191 196 191 199 Z Z" /><text transform="matrix(1 0 0 1 96 211)" fill="#000000" stroke="none"><tspan x="0" y="9">Load organizers</tspan></text><text transform="matrix(1 0 0 1 108 225)" fill="#000000" stroke="none"><tspan x="0" y="9">campaigns</tspan></text><path stroke="#C0BFC0" fill="#C0BFC0" d="M498 251C498 254 496 256 493 256H394C391 256 389 254 389 251V202C389 199 391 197 394 197h99C496 197 498 199 498 202 Z Z" /><path fill="#FCF2E3" d="M495 248C495 251 493 253 490 253H391C388 253 386 251 386 248V199C386 196 388 194 391 194h99C493 194 495 196 495 199 Z Z" /><text transform="matrix(1 0 0 1 410 211)" fill="#000000" stroke="none"><desc xmlns:eadoc="http://www.siemens.com/eauml/doc"><eadoc:guid>EAID_B6E4D634_892C_4a7a_A444_EFE0D14D894D</eadoc:guid><eadoc:name>Select action</eadoc:name><eadoc:type>Activity</eadoc:type></desc><tspan x="0" y="9">Select action</tspan></text><path d="M394 204C390 205 389 205 388 210M388 210v2m0 0h16m0 0v-2m0 0C403 205 402 205 398 204M394 203v2m0 0h4m0 0v-2m-5 7v2m6 -2v2m-1 -8C406 193 386 193 394 204" /><g fill="#000000"><g transform="matrix(1.042781 0 0 -1.042279 0 0)"><g transform="matrix(0.958974 0 0 -0.959436 0 0)"><path d="M400 200C401 194 391 194 392 200h8 Z" /></g></g></g><path stroke="#C0BFC0" fill="#C0BFC0" d="M901 424C901 427 899 429 896 429H766C763 429 761 427 761 424V369C761 366 763 364 766 364H896C899 364 901 366 901 369 Z Z" /><path fill="#FCF2E3" d="M898 421C898 424 896 426 893 426H763C760 426 758 424 758 421V366C758 363 760 361 763 361H893C896 361 898 363 898 366 Z Z" /><rect fill="#FCF2E3" x="821" y="409" width="15" height="15" /><path d="M823 417h6m5 0h-5m0 -5v5m0 5v-5" /><text transform="matrix(1 0 0 1 783 378)" fill="#000000" stroke="none"><tspan x="0" y="9">Use Case "Delete a</tspan></text><text transform="matrix(1 0 0 1 802 392)" fill="#000000" stroke="none"><tspan x="0" y="9">campaign"</tspan></text><path d="M899 391h73m0 0V238" /><path fill="#000000" d="M972 238l-6 16h12 Z" /><path d="M680 245V394m0 0h78" /><path fill="#000000" d="M758 394l-16 -6v12 Z" /><path d="M899 315h67m0 0C969 315 972 312 972 309M972 309V238" /><path fill="#000000" d="M972 238l-6 16h12 Z" /><path d="M899 220h57" /><path fill="#000000" d="M956 220l-16 -6v12 Z" /><path d="M899 127h66m0 0C968 127 971 130 971 133M971 133v75" /><path fill="#000000" d="M971 208l6 -16H965 Z" /><path d="M496 224h57" /><path fill="#000000" d="M553 224l-16 -6v12 Z" /><path d="M192 224h35" /><path fill="#000000" d="M227 224l-16 -6v12 Z" /><path d="M680 203V135m0 0C680 132 683 129 686 129M686 129h72" /><path fill="#000000" d="M758 129l-16 -6v12 Z" /><path d="M680 245v66m0 0C680 314 683 317 686 317M686 317h72" /><path fill="#000000" d="M758 317l-16 -6v12 Z" /><path d="M701 223h57" /><path fill="#000000" d="M758 223l-16 -6v12 Z" /><path d="M583 224h76" /><path fill="#000000" d="M659 224l-16 -6v12 Z" /><path d="M349 224h37" /><path fill="#000000" d="M386 224l-16 -6v12 Z" /><path d="M38 223H76" /><path fill="#000000" d="M76 223L60 217v12 Z" /></g></g></g></g></svg>