<?xml version="1.0" encoding="utf-8"?><svg version="1.1" preserveAspectRatio="xMidYMid" xml:space="preserve" width="482.7806pt" height="135.44975pt" viewBox="114.9884 64.94685 482.7806 135.44975" xmlns="http://www.w3.org/2000/svg" xmlns:xlink="http://www.w3.org/1999/xlink"><g transform="matrix(1 0 0 -1 0 816)"><g stroke="#000000" fill="none" fill-rule="evenodd" stroke-width="1" stroke-linecap="round" stroke-linejoin="round" stroke-miterlimit="3" letter-spacing="normal" font-weight="normal" font-style="normal" baseline-shift="0"><g transform="matrix(0.75 0 0 0.75 0 816.450012)"><g transform="matrix(0.958974 0 0 -0.959436 0 0)" font-family="Arial" font-size="10"><text transform="matrix(1 0 0 1 203 152)" fill="#000000" stroke="none"><tspan x="0" y="9">Name</tspan><tspan x="131" y="12">Target amount</tspan><tspan x="228" y="10">Donated so far</tspan></text><text transform="matrix(1 0 0 1 203 182)" fill="#000000" stroke="none"><tspan x="0" y="9">Football shirts</tspan></text><text transform="matrix(1 0 0 1 334 182)" fill="#000000" font-family="ArialUnicode" stroke="none"><tspan dx="0 " x="0" y="9">1.000,00 €</tspan></text><text transform="matrix(1 0 0 1 431 182)" fill="#000000" font-family="ArialUnicode" stroke="none"><tspan dx="0 " x="0" y="9">258,00 €</tspan></text><rect fill="#C0C0C0" stroke="none" x="528" y="177" width="89" height="19" /><rect x="528" y="177" width="89" height="19" /><text transform="matrix(1 0 0 1 563 180)" fill="#000000" stroke="none"><tspan x="0" y="9">Edit</tspan></text><rect fill="#C0C0C0" stroke="none" x="629" y="177" width="89" height="19" /><rect x="629" y="177" width="89" height="19" /><text transform="matrix(1 0 0 1 641 180)" fill="#000000" stroke="none"><tspan x="0" y="9">List donations</tspan></text><rect fill="#C0C0C0" stroke="none" x="730" y="177" width="89" height="19" /><rect x="730" y="177" width="89" height="19" /><text transform="matrix(1 0 0 1 763 180)" fill="#000000" stroke="none"><tspan x="0" y="9">Form</tspan></text><text transform="matrix(1 0 0 1 203 214)" fill="#000000" stroke="none"><tspan x="0" y="9">Wheelchair for Maria</tspan></text><text transform="matrix(1 0 0 1 334 214)" fill="#000000" font-family="ArialUnicode" stroke="none"><tspan dx="0 " x="0" y="9">2.500,00 €</tspan></text><text transform="matrix(1 0 0 1 431 214)" fill="#000000" font-family="ArialUnicode" stroke="none"><tspan dx="0 " x="0" y="9">742,00 €</tspan></text><rect fill="#C0C0C0" stroke="none" x="528" y="209" width="89" height="19" /><rect x="528" y="209" width="89" height="19" /><text transform="matrix(1 0 0 1 563 212)" fill="#000000" stroke="none"><tspan x="0" y="9">Edit</tspan></text><rect fill="#C0C0C0" stroke="none" x="629" y="209" width="89" height="19" /><rect x="629" y="209" width="89" height="19" /><text transform="matrix(1 0 0 1 641 212)" fill="#000000" stroke="none"><tspan x="0" y="9">List donations</tspan></text><rect fill="#C0C0C0" stroke="none" x="730" y="209" width="89" height="19" /><rect x="730" y="209" width="89" height="19" /><text transform="matrix(1 0 0 1 763 212)" fill="#000000" stroke="none"><tspan x="0" y="9">Form</tspan></text><path d="M172 168H820" /><rect fill="#C0C0C0" stroke="none" x="172" y="249" width="99" height="19" /><rect x="172" y="249" width="99" height="19" /><text transform="matrix(1 0 0 1 187 252)" fill="#000000" stroke="none"><tspan x="0" y="9">Add campaign</tspan></text><text transform="matrix(1 0 0 1 171 103)" fill="#000000" font-size="18" font-weight="bold" stroke="none"><tspan x="0" y="17">My Campaigns</tspan></text><rect fill="#C0C0C0" stroke="none" x="172" y="177" width="18" height="19" /><rect x="172" y="177" width="18" height="19" /><text transform="matrix(1 0 0 1 178 180)" fill="#000000" stroke="none"><tspan x="0" y="9">X</tspan></text><rect fill="#C0C0C0" stroke="none" x="172" y="209" width="18" height="19" /><rect x="172" y="209" width="18" height="19" /><text transform="matrix(1 0 0 1 178 212)" fill="#000000" stroke="none"><tspan x="0" y="9">X</tspan></text></g></g></g></g></svg>