<?xml version="1.0" encoding="utf-8"?><svg version="1.1" preserveAspectRatio="xMidYMid" xml:space="preserve" width="732.3534999999999pt" height="101.62964000000001pt" viewBox="84.0615 86.53416 732.3534999999999 101.62964000000001" xmlns="http://www.w3.org/2000/svg" xmlns:xlink="http://www.w3.org/1999/xlink"><desc xmlns:eadoc="http://www.siemens.com/eauml/doc"><eadoc:guid>EAID_A4FE41C6_30FB_4656_9D77_B22867AB3657</eadoc:guid><eadoc:name>Use Case "Edit donation form"</eadoc:name><eadoc:type>Diagram</eadoc:type><eadoc:note></eadoc:note></desc><g transform="matrix(1 0 0 -1 0 816)"><g stroke="#000000" fill="none" fill-rule="evenodd" stroke-width="1" stroke-linecap="round" stroke-linejoin="round" stroke-miterlimit="3" letter-spacing="normal" font-weight="normal" font-style="normal" baseline-shift="0"><g transform="matrix(0.75 0 0 0.75 0 816.450012)"><g transform="matrix(0.958974 0 0 -0.959436 0 0)" font-family="Arial" font-size="10"><path fill="#FCF2E3" stroke="none" d="M128 214.5C128 206.49 134.49 200 142.5 200C150.51 200 157 206.49 157 214.5C157 222.51 150.51 229 142.5 229C134.49 229 128 222.51 128 214.5" /><path d="M128 214.5C128 206.49 134.49 200 142.5 200C150.51 200 157 206.49 157 214.5C157 222.51 150.51 229 142.5 229C134.49 229 128 222.51 128 214.5" /><text transform="matrix(1 0 0 1 130 232)" fill="#000000" stroke="none"><tspan x="0" y="9">Start</tspan></text><path stroke="#C0BFC0" fill="#C0BFC0" d="M319 243C319 246 317 248 314 248H215C212 248 210 246 210 243V194C210 191 212 189 215 189h99C317 189 319 191 319 194 Z Z" /><path fill="#FCF2E3" d="M316 240C316 243 314 245 311 245H212C209 245 207 243 207 240V191C207 188 209 186 212 186h99C314 186 316 188 316 191 Z Z" /><text transform="matrix(1 0 0 1 232 203)" fill="#000000" stroke="none"><tspan x="0" y="9">Load chosen</tspan></text><text transform="matrix(1 0 0 1 238 217)" fill="#000000" stroke="none"><tspan x="0" y="9">campaign</tspan></text><path stroke="#C0BFC0" fill="#C0BFC0" d="M653 243C653 246 651 248 648 248H529C526 248 524 246 524 243V194C524 191 526 189 529 189H648C651 189 653 191 653 194 Z Z" /><path fill="#FCF2E3" d="M650 240C650 243 648 245 645 245H526C523 245 521 243 521 240V191C521 188 523 186 526 186H645C648 186 650 188 650 191 Z Z" /><text transform="matrix(1 0 0 1 534 203)" fill="#000000" stroke="none"><tspan x="0" y="9">Assemble screen "Edit</tspan></text><text transform="matrix(1 0 0 1 551 217)" fill="#000000" stroke="none"><tspan x="0" y="9">donation form"</tspan></text><path stroke="#C0BFC0" fill="#C0BFC0" d="M810 243C810 246 808 248 805 248H706C703 248 701 246 701 243V194C701 191 703 189 706 189h99C808 189 810 191 810 194 Z Z" /><path fill="#FCF2E3" d="M807 240C807 243 805 245 802 245H703C700 245 698 243 698 240V191C698 188 700 186 703 186h99C805 186 807 188 807 191 Z Z" /><text transform="matrix(1 0 0 1 720 203)" fill="#000000" stroke="none"><desc xmlns:eadoc="http://www.siemens.com/eauml/doc"><eadoc:guid>EAID_6E3FEB2B_76B9_4e51_968D_17A6E1C34806</eadoc:guid><eadoc:name>Choose colors</eadoc:name><eadoc:type>Activity</eadoc:type></desc><tspan x="0" y="9">Choose colors</tspan></text><path d="M706 196C702 197 701 197 700 202M700 202v2m0 0h16m0 0v-2m0 0C715 197 714 197 710 196M706 195v2m0 0h4m0 0v-2m-5 7v2m6 -2v2m-1 -8C718 185 698 185 706 196" /><g fill="#000000"><g transform="matrix(1.042781 0 0 -1.042279 0 0)"><g transform="matrix(0.958974 0 0 -0.959436 0 0)"><path d="M712 192C713 186 703 186 704 192h8 Z" /></g></g></g><path stroke="#C0BFC0" fill="#C0BFC0" d="M957 243C957 246 955 248 952 248H853C850 248 848 246 848 243V194C848 191 850 189 853 189h99C955 189 957 191 957 194 Z Z" /><path fill="#FCF2E3" d="M954 240C954 243 952 245 949 245H850C847 245 845 243 845 240V191C845 188 847 186 850 186h99C952 186 954 188 954 191 Z Z" /><text transform="matrix(1 0 0 1 870 203)" fill="#000000" stroke="none"><desc xmlns:eadoc="http://www.siemens.com/eauml/doc"><eadoc:guid>EAID_3C8198E0_570A_47b4_AF6E_FF62FA259753</eadoc:guid><eadoc:name>Update URL </eadoc:name><eadoc:type>Activity</eadoc:type></desc><tspan x="0" y="9">Update URL </tspan></text><path stroke="#C0BFC0" fill="#C0BFC0" d="M478 243C478 246 476 248 473 248H374C371 248 369 246 369 243V194C369 191 371 189 374 189h99C476 189 478 191 478 194 Z Z" /><path fill="#FCF2E3" d="M475 240C475 243 473 245 470 245H371C368 245 366 243 366 240V191C366 188 368 186 371 186h99C473 186 475 188 475 191 Z Z" /><text transform="matrix(1 0 0 1 387 203)" fill="#000000" stroke="none"><desc xmlns:eadoc="http://www.siemens.com/eauml/doc"><eadoc:guid>EAID_CCF173A8_F18C_49ed_8C3F_1EF7659688C3</eadoc:guid><eadoc:name>Generate URL</eadoc:name><eadoc:type>Activity</eadoc:type></desc><tspan x="0" y="9">Generate URL</tspan></text><path fill="#FCF2E3" d="M993 218l21 -21l21 21l-21 21L993 218 Z" /><text transform="matrix(1 0 0 1 961 242)" fill="#000000" stroke="none"><tspan x="0" y="9">User has clicked 'OK'?</tspan></text><path fill="#FCF2E3" stroke-width="3" d="M1124 218C1124 226 1118 232 1109 232C1101 232 1095 226 1095 217C1095 209 1101 203 1110 203C1118 203 1124 209 1124 218 Z Z" /><path fill="#000000" d="M1117 218C1117 222 1114 225 1110 225C1105 225 1102 222 1102 218C1102 213 1105 210 1110 210C1114 210 1117 213 1117 218 Z Z" /><text transform="matrix(1 0 0 1 1097 235)" fill="#000000" stroke="none"><tspan x="0" y="9">End</tspan></text><path d="M1014 197V138m0 0C1014 135 1011 132 1008 132M1008 132H758m0 0C755 132 752 135 752 138M752 138v48" /><path fill="#000000" d="M752 186l6 -16H746 Z" /><g transform="matrix(1 0 0 -1 732 168)"><rect fill="#FFFFFF" stroke="none" x="0" width="13" y="-11" height="11" /></g><text transform="matrix(1 0 0 1 732 168)" fill="#000000" stroke="none"><tspan x="0" y="9">no</tspan></text><path d="M158 215h49" /><path fill="#000000" d="M207 215l-16 -6v12 Z" /><path d="M1035 218h60" /><path fill="#000000" d="M1095 218l-16 -6v12 Z" /><g transform="matrix(1 0 0 -1 1049 202)"><rect fill="#FFFFFF" stroke="none" x="0" width="16" y="-11" height="11" /></g><text transform="matrix(1 0 0 1 1049 202)" fill="#000000" stroke="none"><tspan x="0" y="9">yes</tspan></text><path d="M955 216h38" /><path fill="#000000" d="M993 216l-16 -6v12 Z" /><path d="M476 216h45" /><path fill="#000000" d="M521 216l-16 -6v12 Z" /><path d="M317 216h49" /><path fill="#000000" d="M366 216l-16 -6v12 Z" /><path d="M808 216h37" /><path fill="#000000" d="M845 216l-16 -6v12 Z" /><path d="M651 216h47" /><path fill="#000000" d="M698 216l-16 -6v12 Z" /></g></g></g></g></svg>