<?xml version="1.0" encoding="utf-8"?><svg version="1.1" preserveAspectRatio="xMidYMid" xml:space="preserve" width="431.99145000000004pt" height="62.02680000000001pt" viewBox="63.84654999999999 122.43879999999998 431.99145000000004 62.02680000000001" xmlns="http://www.w3.org/2000/svg" xmlns:xlink="http://www.w3.org/1999/xlink"><desc xmlns:eadoc="http://www.siemens.com/eauml/doc"><eadoc:guid>EAID_8C80CE5E_8165_4dd8_B5B3_BDFD98E4DAE0</eadoc:guid><eadoc:name>Use Case "Display donor list"</eadoc:name><eadoc:type>Diagram</eadoc:type><eadoc:note></eadoc:note></desc><g transform="matrix(1 0 0 -1 0 816)"><g stroke="#000000" fill="none" fill-rule="evenodd" stroke-width="1" stroke-linecap="round" stroke-linejoin="round" stroke-miterlimit="3" letter-spacing="normal" font-weight="normal" font-style="normal" baseline-shift="0"><g transform="matrix(0.75 0 0 0.75 0 816.450012)"><g transform="matrix(0.957954 0 0 -0.958892 0 0)" font-family="Arial" font-size="10"><path fill="#FCF2E3" stroke="none" d="M100 213.5C100 205.49 106.49 199 114.5 199C122.51 199 129 205.49 129 213.5C129 221.51 122.51 228 114.5 228C106.49 228 100 221.51 100 213.5" /><path d="M100 213.5C100 205.49 106.49 199 114.5 199C122.51 199 129 205.49 129 213.5C129 221.51 122.51 228 114.5 228C106.49 228 100 221.51 100 213.5" /><text transform="matrix(1 0 0 1 102 231)" fill="#000000" stroke="none"><tspan x="0" y="9">Start</tspan></text><path stroke="#C0BFC0" fill="#C0BFC0" d="M444 240C444 243 442 245 439 245H340C337 245 335 243 335 240V191C335 188 337 186 340 186h99C442 186 444 188 444 191 Z Z" /><path fill="#FCF2E3" d="M441 237C441 240 439 242 436 242H337C334 242 332 240 332 237V188C332 185 334 183 337 183h99C439 183 441 185 441 188 Z Z" /><text transform="matrix(1 0 0 1 342 200)" fill="#000000" stroke="none"><tspan x="0" y="9">Load donations for</tspan></text><text transform="matrix(1 0 0 1 342 214)" fill="#000000" stroke="none"><tspan x="0" y="9">selected campaign</tspan></text><path stroke="#C0BFC0" fill="#C0BFC0" d="M291 241C291 244 289 246 286 246H187C184 246 182 244 182 241V192C182 189 184 187 187 187h99C289 187 291 189 291 192 Z Z" /><path fill="#FCF2E3" d="M288 238C288 241 286 243 283 243H184C181 243 179 241 179 238V189C179 186 181 184 184 184h99C286 184 288 186 288 189 Z Z" /><text transform="matrix(1 0 0 1 204 201)" fill="#000000" stroke="none"><tspan x="0" y="9">Load chosen</tspan></text><text transform="matrix(1 0 0 1 210 215)" fill="#000000" stroke="none"><tspan x="0" y="9">campaign</tspan></text><path stroke="#C0BFC0" fill="#C0BFC0" d="M586 239C586 242 584 244 581 244H482C479 244 477 242 477 239V190C477 187 479 185 482 185h99C584 185 586 187 586 190 Z Z" /><path fill="#FCF2E3" d="M583 236C583 239 581 241 578 241H479C476 241 474 239 474 236V187C474 184 476 182 479 182h99C581 182 583 184 583 187 Z Z" /><text transform="matrix(1 0 0 1 489 199)" fill="#000000" stroke="none"><tspan x="0" y="9">Assemble screen</tspan></text><text transform="matrix(1 0 0 1 483 213)" fill="#000000" stroke="none"><tspan x="0" y="9">"Display donor list" </tspan></text><path fill="#FCF2E3" stroke-width="3" d="M655 212C655 220 649 226 640 226C632 226 626 220 626 211C626 203 632 197 640 197C649 197 655 203 655 212 Z Z" /><path fill="#000000" d="M641 203l-8 13h16 Z" /><text transform="matrix(1 0 0 1 614 229)" fill="#000000" stroke="none"><tspan x="0" y="9">Wait for "OK"</tspan></text><path d="M584 212h42" /><path fill="#000000" d="M626 212l-16 -6v12 Z" /><path d="M289 213h43" /><path fill="#000000" d="M332 213l-16 -6v12 Z" /><path d="M130 214h49" /><path fill="#000000" d="M179 214l-16 -6v12 Z" /><path d="M442 212h32" /><path fill="#000000" d="M474 212l-16 -6v12 Z" /></g></g></g></g></svg>