<?xml version="1.0" encoding="utf-8"?><svg version="1.1" preserveAspectRatio="xMidYMid" xml:space="preserve" width="437.0142pt" height="190.03888999999998pt" viewBox="109.108 67.78191 437.0142 190.03888999999998" xmlns="http://www.w3.org/2000/svg" xmlns:xlink="http://www.w3.org/1999/xlink"><g transform="matrix(1 0 0 -1 0 816)"><g stroke="#000000" fill="none" fill-rule="evenodd" stroke-width="1" stroke-linecap="round" stroke-linejoin="round" stroke-miterlimit="3" letter-spacing="normal" font-weight="normal" font-style="normal" baseline-shift="0"><g transform="matrix(0.75 0 0 0.75 0 816.450012)"><g transform="matrix(0.957939 0 0 -0.958892 0 0)" font-family="Arial" font-size="10"><text transform="matrix(1 0 0 1 165 108)" fill="#000000" font-family="Arial Narrow" font-size="29" font-weight="bold" stroke="none"><tspan x="0" y="27">List of donations"Wheelchair for Maria"</tspan></text><text transform="matrix(1 0 0 1 165 161)" fill="#000000" font-size="13" font-style="italic" stroke="none"><tspan x="0" y="11">Beneficiary account: Max Mustermann, IBAN: DE44123456780100200300, ABC Bank</tspan></text><text transform="matrix(1 0 0 1 165 211)" fill="#000000" stroke="none"><tspan x="0" y="9">Name</tspan></text><text transform="matrix(1 0 0 1 257 211)" fill="#000000" stroke="none"><tspan x="0" y="9">IBAN</tspan></text><text transform="matrix(1 0 0 1 403 211)" fill="#000000" stroke="none"><tspan x="0" y="9">Name of Bank</tspan></text><text transform="matrix(1 0 0 1 491 212)" fill="#000000" stroke="none"><tspan x="0" y="9">Donation amount</tspan></text><text transform="matrix(1 0 0 1 585 211)" fill="#000000" stroke="none"><tspan x="0" y="9">Receipt</tspan></text><text transform="matrix(1 0 0 1 664 212)" fill="#000000" stroke="none"><tspan x="0" y="9">Status</tspan></text><text transform="matrix(1 0 0 1 165 250)" fill="#000000" stroke="none"><tspan x="0" y="9">Heinz Schmidt</tspan></text><text transform="matrix(1 0 0 1 165 289)" fill="#000000" stroke="none"><tspan x="0" y="9">Karl Meier</tspan></text><text transform="matrix(1 0 0 1 257 250)" fill="#000000" stroke="none"><tspan x="0" y="9">DE44123456780100200300</tspan></text><text transform="matrix(1 0 0 1 257 289)" fill="#000000" stroke="none"><tspan x="0" y="9">DE44876543210000123456</tspan></text><text transform="matrix(1 0 0 1 405 249)" fill="#000000" stroke="none"><tspan x="0" y="9">XXX Bank</tspan></text><text transform="matrix(1 0 0 1 407 285)" fill="#000000" stroke="none"><tspan x="0" y="9">YYY Bank</tspan></text><text transform="matrix(1 0 0 1 494 250)" fill="#000000" font-family="ArialUnicode" stroke="none"><tspan dx="0 " x="0" y="9">20,00 €</tspan></text><text transform="matrix(1 0 0 1 495 286)" fill="#000000" font-family="ArialUnicode" stroke="none"><tspan dx="0 " x="0" y="9">30,00 €</tspan></text><text transform="matrix(1 0 0 1 587 248)" fill="#000000" stroke="none"><tspan x="0" y="9">yes</tspan></text><text transform="matrix(1 0 0 1 587 285)" fill="#000000" stroke="none"><tspan x="0" y="9">no</tspan></text><text transform="matrix(1 0 0 1 664 247)" fill="#000000" stroke="none"><tspan x="0" y="9">transferred</tspan></text><text transform="matrix(1 0 0 1 664 285)" fill="#000000" stroke="none"><tspan x="0" y="9">in process</tspan></text><rect fill="#C0C0C0" stroke="none" x="166" y="329" width="89" height="19" /><rect x="166" y="329" width="89" height="19" /><text transform="matrix(1 0 0 1 203 332)" fill="#000000" stroke="none"><tspan x="0" y="9">OK</tspan></text><path d="M163 228H749" /><path d="M248 206V312" /><path d="M395 206V312" /><path d="M484 206V312" /><path d="M575 206V312" /><path d="M653 206V312" /></g></g></g></g></svg>