<?xml version="1.0" encoding="utf-8"?><svg version="1.1" preserveAspectRatio="xMidYMid" xml:space="preserve" width="464.08052pt" height="87.95769999999999pt" viewBox="81.18458 106.6823 464.08052 87.95769999999999" xmlns="http://www.w3.org/2000/svg" xmlns:xlink="http://www.w3.org/1999/xlink"><desc xmlns:eadoc="http://www.siemens.com/eauml/doc"><eadoc:guid>EAID_76E74E9D_33FC_43bd_863A_7ECD9F5823B0</eadoc:guid><eadoc:name>Use Case "Edit campaign"</eadoc:name><eadoc:type>Diagram</eadoc:type><eadoc:note></eadoc:note></desc><g transform="matrix(1 0 0 -1 0 816)"><g stroke="#000000" fill="none" fill-rule="evenodd" stroke-width="1" stroke-linecap="round" stroke-linejoin="round" stroke-miterlimit="3" letter-spacing="normal" font-weight="normal" font-style="normal" baseline-shift="0"><g transform="matrix(0.75 0 0 0.75 0 816.450012)"><g transform="matrix(0.958974 0 0 -0.959436 0 0)" font-family="Arial" font-size="10"><path fill="#FCF2E3" stroke="none" d="M124 188.5C124 180.49 130.49 174 138.5 174C146.51 174 153 180.49 153 188.5C153 196.51 146.51 203 138.5 203C130.49 203 124 196.51 124 188.5" /><path d="M124 188.5C124 180.49 130.49 174 138.5 174C146.51 174 153 180.49 153 188.5C153 196.51 146.51 203 138.5 203C130.49 203 124 196.51 124 188.5" /><text transform="matrix(1 0 0 1 128 207)" fill="#000000" stroke="none"><tspan x="0" y="9">Start</tspan></text><path fill="#FCF2E3" stroke="none" d="M380 220.5C380 212.49 386.49 206 394.5 206C402.51 206 409 212.49 409 220.5C409 228.51 402.51 235 394.5 235C386.49 235 380 228.51 380 220.5" /><path d="M380 220.5C380 212.49 386.49 206 394.5 206C402.51 206 409 212.49 409 220.5C409 228.51 402.51 235 394.5 235C386.49 235 380 228.51 380 220.5" /><path fill="#FCF2E3" stroke="none" d="M383 220.5C383 214.15 388.15 209 394.5 209C400.85 209 406 214.15 406 220.5C406 226.85 400.85 232 394.5 232C388.15 232 383 226.85 383 220.5" /><path d="M383 220.5C383 214.15 388.15 209 394.5 209C400.85 209 406 214.15 406 220.5C406 226.85 400.85 232 394.5 232C388.15 232 383 226.85 383 220.5" /><path fill="#FCF2E3" d="M387 216l3 -3l5 6l5 -6l3 3l-6 5l6 5l-3 3l-5 -6l-5 6l-3 -3l6 -5l-6 -5 Z" /><text transform="matrix(1 0 0 1 350 241)" fill="#000000" stroke="none"><tspan x="0" y="9">Edit canceled</tspan></text><path stroke="#C0BFC0" fill="#C0BFC0" d="M496 218C496 221 494 223 491 223H392C389 223 387 221 387 218V169C387 166 389 164 392 164h99C494 164 496 166 496 169 Z Z" /><path fill="#FCF2E3" d="M493 215C493 218 491 220 488 220H389C386 220 384 218 384 215V166C384 163 386 161 389 161h99C491 161 493 163 493 166 Z Z" /><rect fill="#FCF2E3" x="432" y="203" width="15" height="15" /><path d="M434 211h5m5 0h-5m0 -5v5m0 5v-5" /><text transform="matrix(1 0 0 1 392 178)" fill="#000000" stroke="none"><desc xmlns:eadoc="http://www.siemens.com/eauml/doc"><eadoc:guid>EAID_AE1D1DDD_88BD_4511_AE8F_5F94AF631133</eadoc:guid><eadoc:name>Edit campaign data</eadoc:name><eadoc:type>Activity</eadoc:type></desc><tspan x="0" y="9">Edit campaign data</tspan></text><path fill="#FCF2E3" stroke="none" d="M380 220.5C380 212.49 386.49 206 394.5 206C402.51 206 409 212.49 409 220.5C409 228.51 402.51 235 394.5 235C386.49 235 380 228.51 380 220.5" /><path d="M380 220.5C380 212.49 386.49 206 394.5 206C402.51 206 409 212.49 409 220.5C409 228.51 402.51 235 394.5 235C386.49 235 380 228.51 380 220.5" /><path fill="#FCF2E3" stroke="none" d="M383 220.5C383 214.15 388.15 209 394.5 209C400.85 209 406 214.15 406 220.5C406 226.85 400.85 232 394.5 232C388.15 232 383 226.85 383 220.5" /><path d="M383 220.5C383 214.15 388.15 209 394.5 209C400.85 209 406 214.15 406 220.5C406 226.85 400.85 232 394.5 232C388.15 232 383 226.85 383 220.5" /><path fill="#FCF2E3" d="M387 216l3 -3l5 6l5 -6l3 3l-6 5l6 5l-3 3l-5 -6l-5 6l-3 -3l6 -5l-6 -5 Z" /><text transform="matrix(1 0 0 1 350 241)" fill="#000000" stroke="none"><tspan x="0" y="9">Edit canceled</tspan></text><path stroke="#C0BFC0" fill="#C0BFC0" d="M649 220C649 223 647 225 644 225H535C532 225 530 223 530 220V168C530 165 532 163 535 163H644C647 163 649 165 649 168 Z Z" /><path fill="#FCF2E3" d="M646 217C646 220 644 222 641 222H532C529 222 527 220 527 217V165C527 162 529 160 532 160H641C644 160 646 162 646 165 Z Z" /><text transform="matrix(1 0 0 1 549 177)" fill="#000000" stroke="none"><tspan x="0" y="9">Update selected</tspan></text><text transform="matrix(1 0 0 1 563 191)" fill="#000000" stroke="none"><tspan x="0" y="9">campaign</tspan></text><path fill="#FCF2E3" stroke-width="3" d="M730 191C730 199 724 205 715 205C707 205 701 199 701 190C701 182 707 176 716 176C724 176 730 182 730 191 Z Z" /><path fill="#000000" d="M723 190C723 195 720 198 715 198C711 198 708 195 708 190C708 186 711 183 715 183C720 183 723 186 723 190 Z Z" /><text transform="matrix(1 0 0 1 703 208)" fill="#000000" stroke="none"><tspan x="0" y="9">End</tspan></text><path stroke="#C0BFC0" fill="#C0BFC0" d="M323 219C323 222 321 224 318 224H219C216 224 214 222 214 219V170C214 167 216 165 219 165h99C321 165 323 167 323 170 Z Z" /><path fill="#FCF2E3" d="M320 216C320 219 318 221 315 221H216C213 221 211 219 211 216V167C211 164 213 162 216 162h99C318 162 320 164 320 167 Z Z" /><text transform="matrix(1 0 0 1 233 179)" fill="#000000" stroke="none"><tspan x="0" y="9">Load selected</tspan></text><text transform="matrix(1 0 0 1 242 193)" fill="#000000" stroke="none"><tspan x="0" y="9">campaign</tspan></text><path d="M321 191h63" /><path fill="#000000" d="M384 191l-16 -6v12 Z" /><path d="M154 189h57" /><path fill="#000000" d="M211 189l-16 -6v12 Z" /><path d="M396 236v18m0 0C396 257 399 260 402 260M402 260H741m0 0C744 260 747 257 747 254M747 254V197m0 0C747 194 744 191 741 191M741 191H731" /><path fill="#000000" d="M731 191l16 6V185 Z" /><path d="M647 191h54" /><path fill="#000000" d="M701 191l-16 -6v12 Z" /><path d="M494 191h33" /><path fill="#000000" d="M527 191l-16 -6v12 Z" /></g></g></g></g></svg>