<?xml version="1.0" encoding="utf-8"?><svg version="1.1" preserveAspectRatio="xMidYMid" xml:space="preserve" width="407.52809pt" height="285.89229pt" viewBox="48.75361 27.335610000000002 407.52809 285.89229" xmlns="http://www.w3.org/2000/svg" xmlns:xlink="http://www.w3.org/1999/xlink"><g transform="matrix(1 0 0 -1 0 841)"><g stroke="#000000" fill="none" fill-rule="evenodd" stroke-width="1" stroke-linecap="round" stroke-linejoin="round" stroke-miterlimit="3" letter-spacing="normal" font-weight="normal" font-style="normal" baseline-shift="0"><g transform="matrix(0.75 0 0 0.75 0 841.650024)"><g transform="matrix(0.957867 0 0 -0.959617 0 0)" font-family="Arial" font-size="10"><rect fill="#C0BFC0" stroke="none" x="82" y="53" width="89" height="49" /><rect fill="#FCF2E3" stroke="none" x="79" y="50" width="89" height="49" /><rect x="79" y="50" width="89" height="49" /><text transform="matrix(1 0 0 1 106 53)" fill="#000000" stroke="none"><tspan x="0" y="9">«View»</tspan></text><text transform="matrix(1 0 0 1 96 69)" fill="#000000" stroke="none"><tspan x="0" y="9">JSF Facelet</tspan></text><path stroke-dasharray="7,4" d="M124 100L124 425" /><rect fill="#FCF2E3" stroke="none" x="119" y="135" width="9" height="273" /><rect x="119" y="135" width="9" height="273" /><rect fill="#C0BFC0" stroke="none" x="238" y="53" width="89" height="49" /><rect fill="#FCF2E3" stroke="none" x="235" y="50" width="89" height="49" /><rect x="235" y="50" width="89" height="49" /><text transform="matrix(1 0 0 1 251 53)" fill="#000000" stroke="none"><tspan x="0" y="9">«Controller»</tspan></text><text transform="matrix(1 0 0 1 257 69)" fill="#000000" stroke="none"><tspan x="0" y="9">CDI Bean</tspan></text><path stroke-dasharray="7,4" d="M280 100L280 425" /><rect fill="#FCF2E3" stroke="none" x="275" y="135" width="9" height="49" /><rect x="275" y="135" width="9" height="49" /><rect fill="#FCF2E3" stroke="none" x="275" y="289" width="9" height="119" /><rect x="275" y="289" width="9" height="119" /><rect fill="#C0BFC0" stroke="none" x="383" y="53" width="89" height="49" /><rect fill="#FCF2E3" stroke="none" x="380" y="50" width="89" height="49" /><rect x="380" y="50" width="89" height="49" /><text transform="matrix(1 0 0 1 404 53)" fill="#000000" stroke="none"><tspan x="0" y="9">«Model»</tspan></text><text transform="matrix(1 0 0 1 416 69)" fill="#000000" stroke="none"><tspan x="0" y="9">JPA</tspan></text><path stroke-dasharray="7,4" d="M425 100L425 425" /><rect fill="#FCF2E3" stroke="none" x="420" y="214" width="9" height="49" /><rect x="420" y="214" width="9" height="49" /><rect fill="#C0BFC0" stroke="none" x="535" y="53" width="89" height="49" /><rect fill="#FCF2E3" stroke="none" x="532" y="50" width="89" height="49" /><rect x="532" y="50" width="89" height="49" /><text transform="matrix(1 0 0 1 553 53)" fill="#000000" stroke="none"><tspan x="0" y="9">«Service»</tspan></text><text transform="matrix(1 0 0 1 545 69)" fill="#000000" stroke="none"><tspan x="0" y="9">Session Bean</tspan></text><path stroke-dasharray="7,4" d="M577 100L577 425" /><rect fill="#FCF2E3" stroke="none" x="572" y="324" width="9" height="49" /><rect x="572" y="324" width="9" height="49" /><path d="M129 135H275" /><path fill="#000000" d="M263 131v4v4l12 -4l-12 -4" /><g transform="matrix(1 0 0 -1 136 121)"><rect fill="#FFFFFF" stroke="none" x="0" width="139" y="-11" height="11" /></g><text transform="matrix(1 0 0 1 136 121)" fill="#000000" stroke="none"><tspan x="0" y="9">#{controller.doSomeThing}()</tspan></text><path stroke-dasharray="7,4" d="M275 170L129 170" /><path d="M129 170l12 -4m-12 4l12 4" /><path d="M129 214H420" /><path fill="#000000" d="M408 210v4v4l12 -4l-12 -4" /><g transform="matrix(1 0 0 -1 206 200)"><rect fill="#FFFFFF" stroke="none" x="0" width="143" y="-11" height="11" /></g><text transform="matrix(1 0 0 1 206 200)" fill="#000000" stroke="none"><tspan x="0" y="9">#{controller.model.attribute}()</tspan></text><path stroke-dasharray="7,4" d="M420 249L129 249" /><path d="M129 249l12 -4m-12 4l12 4" /><path d="M129 289H275" /><path fill="#000000" d="M263 285v4v4l12 -4l-12 -4" /><g transform="matrix(1 0 0 -1 137 275)"><rect fill="#FFFFFF" stroke="none" x="0" width="136" y="-11" height="11" /></g><text transform="matrix(1 0 0 1 137 275)" fill="#000000" stroke="none"><tspan x="0" y="9">#{controller.businessLogic}()</tspan></text><path d="M285 324H572" /><path fill="#000000" d="M560 320v4v4l12 -4l-12 -4" /><g transform="matrix(1 0 0 -1 369 310)"><rect fill="#FFFFFF" stroke="none" x="0" width="124" y="-11" height="11" /></g><text transform="matrix(1 0 0 1 369 310)" fill="#000000" stroke="none"><tspan x="0" y="9">ejb.businessLogic(model)</tspan></text><path stroke-dasharray="7,4" d="M572 359L285 359" /><path d="M285 359l12 -4m-12 4l12 4" /><path stroke-dasharray="7,4" d="M275 394L129 394" /><path d="M129 394l12 -4m-12 4l12 4" /></g></g></g></g></svg>